<mxfile host="app.diagrams.net" modified="2021-12-05T08:50:42.025Z" agent="5.0 (Windows NT 10.0; Win64; x64) AppleWebKit/537.36 (KHTML, like Gecko) Chrome/96.0.4664.45 Safari/537.36" etag="d579pUWiJxAkg508wZ3r" version="15.9.1" type="github">
  <diagram id="41wVPlejNLyXNEl7sHd4" name="Page-1">
    <mxGraphModel dx="1102" dy="1694" grid="1" gridSize="10" guides="1" tooltips="1" connect="1" arrows="1" fold="1" page="1" pageScale="1" pageWidth="827" pageHeight="1169" math="0" shadow="0">
      <root>
        <mxCell id="0" />
        <mxCell id="1" parent="0" />
        <mxCell id="g3Qe9eYbxrYbmOavFG9u-14" value="" style="shape=image;verticalLabelPosition=bottom;verticalAlign=top;imageAspect=0;image=data:image/jpeg,/9j/4AAQSkZJRgABAgAAZABkAAD/7AARRHVja3kAAQAEAAAAPAAA/+4ADkFkb2JlAGTAAAAAAf/bAIQABgQEBAUEBgUFBgkGBQYJCwgGBggLDAoKCwoKDBAMDAwMDAwQDA4PEA8ODBMTFBQTExwbGxscHx8fHx8fHx8fHwEHBwcNDA0YEBAYGhURFRofHx8fHx8fHx8fHx8fHx8fHx8fHx8fHx8fHx8fHx8fHx8fHx8fHx8fHx8fHx8fHx8f/8AAEQgCWAMgAwERAAIRAQMRAf/EAM0AAQACAgMBAQAAAAAAAAAAAAABAgMGBAUHCAkBAQEBAQEBAQAAAAAAAAAAAAABAgMEBQYQAAIBAwIDAwUHDAoPBgQHAAABAhEDBAUGITESQRMHUWFxIhSBkdEyQlIVwZLSIzNDlOQWFwgYobFicoLCk9OkVuGislNzg+MkNERUNVVGZuJjw4QlRfGzdDbwo8TUZSYnEQEAAgECBAUDAgUDBAIDAQAAAQIREgNREwQFITFBkRRhUhWhInEyQmJT8CMGsTNDFoHB8XIkNP/aAAwDAQACEQMRAD8A+qQAAAAAAAAAAAAAAAAAAAAAAAAAAAAAAAAAAAAAAAAAAAAAAAAAAAAAAAAAAAAAAAAAAAAAAAAAAAAAAAAAAAAAAAAAAAAAAAAAAAAAAAAAAAAAAAAAAAAAAAAAAAAAAAAAAAAAAAAAAAAAAAAAAAAAAAAAAAAAAAAAAAAAAAAAAAAAAAAAAAAAAAAAAAAAAAAAAAAAAAAAAAAAAAAAAAAAAAAAAAAAAAAAAAAAAAAAAAAAAAAAAAAAAAAAAAAAAAAAAAAAAAAAAAAAAAAAAAAAAAAAAAAAAAAAAAAAAAAAAAAAAAAAAAAAAAAAAAAAAAAAAAAAAAAAAAAAAAAAAAAAAAAAAAAAAAAAAAAAAAAAAAAAAAAAAAAAAAAAAAAAAAAAAAAAAAAAAAAAAAAAAAAAAAAAAAAAAAAAAAAAAAAAAAAAAAAAAAAAAAAAAAAAAAAAAAAAAAAAAAAAAAAAAAAAAAAAAAAAAAAAAAAAAAAAAAAAAAAAAAAAAAAAAAAAAAAAAAAAAAAAAAAAAAAAAAAAAAAAAAAAAAAAAAAAAAAAAAAAAAAAAAAAAAAAAAAAAAAAAAAAAAAAAAAAAAAAAAAAAAAAAAAAAAAAAAAAAAAAAAAAAAAAAAAAAAAAAAAAAAAAAAAAAAAAAAAAAAAAAAAAAAAAAAAAAAAAAAAAAAAAAAAAAAAAAAAAAAAAAAAAAAAAAAAAAAAAAAAAAAAAAAAAAAAAAAAAAAAAAAAAAAAAAAAAAAAAAAAAAAAAAAAAAAAAAAAAAAAAAAAAAAAAAAAAAAAAAAAAAAAAAAAAAAAAAAAAAAAAAAAAAAAAAAAAAAAAAAAAAAAAAAAAAAAAAAAAAAAAAAAAAAAAAAAAAAAAAAAAAAAAAAAAAAAAAAAAAAAAAAAAAAAAAAAAAAAAAAAAAAAAAAAAAAAAAAAAAAAAAAAAAAAAAAAAAAAAAAAAAAAAAAAAAAAAAAAAAAAAAAAAAAAAAAAAAAAAAAAAAAAAAAAAAAAAAAAAAAAAAAAAAAAAAAAAAAAAAAAAAAAAAAAAAAAAAAAAAAAAAAAAAAAAAAAAAAAAAAAAAAAAAAAAAAAAAAAAAAAAAAAAAAAAAAAAAAAAAAAAAAAAAAAAAAAAAAAAAAAAAAAAAAAAAAAAAAAAAAAAAAAAAAAAAAAAAAAAAAAAAAAAAAAAAAAAAAAAAAAAAAAAAAAAAAAAAAAAAAAAAAAAAAAAAAAAAAAAAAAAAAAAAAAAAAAAAAAAAAAAAAAAAAAAAAAAAAAAAAAAAAAAAAAAAAAAAAAAAAAAAAAAAAAAAAAAAAAAAAAAAAAAAAAAAAAAAAAAAAAAAAAAAAAAAAAAAAAAAAAAAAAAAAAAAAAAAAAAAAAAAAAAAAAAAAAAAAAAAAAAAAAAAAAAAAAAAAAAAAAAAAAAAAAAAAAAAAAAAAAAAAAAAAAAAAAAAAAAAAAAAAAAAAAAAAAAAAAAAAAAAAAAAAAAAAAAAAAAAAAAAAAAAAAAAAAAAAAAAAAAAAAAAAAAAAAAAAAAAAAAAAAAAAAAAAAAAAAAAAAAAAAAAAAAAAAAAAAAAAAAAAAAAAAAAAAAAAAAAAAAAAAAAAAAAAAAAAAAAAAAAAAAAAAAAAAAAAAAAAAAAAAAAAAAAAAAAAAAAAAAAAAAAAAAAAAAAAAAAAAAAAAAAAAAAAAAAAAAAAAAAAAAAAAAAAAAAAAAAAAAAAAAAAAAAAAAAAAAAAAAAAAAAAAAAAAAAAAAAAAAAAAAAAAAAAAAAAAAAAAAAAAAAAAAAAAAAAAAAAAAAAAAAAAAAAAAAAAAAAAAAAAAAAAAAAAAAAAAAAAAAAAAAAAAAAAAAAAAAAAAAAAAAAAAAAAAAAAAAAAAAAAAAAAAAAAAAAAAAAAAAAAAAAAAAAAAAAAAAAAAAAAAAAAAAAAAAAAAAAAAAAAAAAAAAAAAAAAAAAAAAAAAAAAAAAAAAAAAAAAAAAAAAAAAAAAAAAAAAAAAAAAAAAAAAAAAAAAAAAAAAAAAAAAAAAAAAAAAAAAAAAAAAAAAAAAAAAAAAAAAAAAAAAAAAAAAAAAAAAAAAAAAAAAAAAAAAAAAAAAAAAAAAAAAAAAAAAAAAAAAAAAAAAAAAAAAAAAAAAAAAAAAAAAAAAAAAAAAAAAAAAAAAAAAAAAAAAAAAAAAAAAAAAAAAAAAAAAAAAAAAAAAAAAAAAAAAAAAAAAAAAAAAAAAAAAAAAAAAAAAAAAAAAAAAAAAAAAAAAAAAAAAAAAAAAAAAAAAAAAAAAAAAAAAAAAAAAAAAAAAAAAAAAAAAAAAAAAAAAAAAAAAAAAAAAAAAAAAAAAAAAAAAAAAAAAAAAAAAAAAAAAAAAAAAAAAAAAAAAAAAAAAAAAAAAAAAAAAAAAAAAAAAAAAAAAAAAAAAAAAAAAAAAAAAAAAAAAAAAAAAAAAAAAAAAAAAAAAAAAAAAAAAAAAAAAAAAAAAAAAAAAAAAAAAAAAAAAAAAAAAAAAAAAAAAAAAAAAAAAAAAAAAAAAAAAAAAAAAAAAAAAAAAAAAAAAAAAAAAAAAAAAAAAAAAAAAAAAAAAAAAAAAAAAAAAAAAAAAAAAAAAAAAAAAAAAAAAAAAAAAAAAAAAAAAAAAAAAAAAAAAAAAAAAAAAAAAAAAAAAAAAAAAAAAAAAAAAAAAAAAAAAAAAAAAAAAAAAAAAAAAAAAAAAAAAAAAAAAAAAAAAAAAAAAAAAAAAAAAAAAAAAAAAAAAAAAAAAAAAAAAAAAAAAAAAAAAAAAAAAAAAAAAAAAAAAAAAAAAAAAAAAAAAAAAAAAAAAAAAAAAAAAAAAAAAAAAAAAAAAAAAAAAAAAAAAAAAAAAAAAAAAAAAAAAAAAAAAAAAAAAAAAAAAAAAAAAAAAAAAAAAAAAAAAAAAAAAAAAAAAAAAAAAAAAAAAAAAAAAAAAAAAAAAAAAAAAAAAAAAAAAAAAAAAAAAAAAAAAAAAAAAAAAAAAAAAAAAAAAAAAAAAAAAAAAAAAAAAAAAAAAAAAAAAAAAAAAAAAAAAAAAAAAAAAAAAAAAAAAAAAAAAAAAAAAAAAAAAAAAAAAAAAAAAAAAAAAAAAAAAAAAAAAAAAAAAAAAAAAAAAAAAAAAAAAAAAAAAAAAAAAAAAAAAAAAAAAAAAAAAAAAAAAAAAAAAANC3h4w7d2/kPEx4/SWZB0vQtTULcPM7lJ1l5kjM3wuGry/SNsp/wC4W12P2r/ImI3DCr/SPtf8Af4X/kTWswh/pJWF/wCwP8K/yJNZhSX6Sthf8vt/+b/yJdZhWX6TOKqU2/N+X/Ol/MjUiP1ncJf+wXPwlfzQ1GVf1n8KtPyfufhK/mhrGwY/jHreRgwzLW1Ju1c4wUsyMZNeVrueB8nd7709L6ZnxeiOmvMZwrHxj15r/wC0pp+T2yP8yYn/AJB03Ffi34I/PJuFyotozp5fbY/zI/8AYOm4p8W/BV+NOtp0/JSXk45sVx/kS/n+m4nxbssfF/ccotraT8i/z6P8wYn/AJF03FfiXR+eDctKvaNH/wDXr+YH/sfS8T4l114sbqlGsdoxb7E9QS//AE5mf+S9Lxn2X4m41zWf0mLujZrws/bFMiKTlG3nKaVfP3CPrdJ1deoprp5PNuVmk4l17/S0x+zbE/w1fzB6sOetK/Szxe3bE1/5xfzANaf1ssT+rNz8MX8yDWj9bPF/qzP8MX8yMGtV/paWf6ry/DV/MFwa1/1scZRUntmXHsWam/8A5BDWrL9LTH+Ttib9Oal/4DLg1o/W0sdu15fhq/mBg1n62tj+q8vw1fzBMGtD/S1sL/leX4av5gYNaP1t7P8AVaX4cv8A9uMGs/W3x/6rz/DV/MDBrF+lvj/1Xn+Gr+YC6ll+lpYbp+S8vw1fzBMmpdfpYWm+G2Jfhq/mCaml1+lZaf8AyzL8NX8wNSrL9Km2/wDll/hv+QJrMLfrTW/6tP8ADf8AIDWYP1pbf9Wn+Gr+YJrMJ/Wkt/1af4b/AJAa10n60lr+rT/DV/MDWYT+tJb/AKtP8NX8wNZg/Wjt/wBWn+G/5AazSlfpRWqf/bbr/wDW/wCQHMNKP1orf9W3+G/5Acw0n60cf6tf038XHMMJX6UEXy237+cl/wCAOYYR+tFGtHtr+nfi41phD/Skgv8Alpv/AM7/AJAazCF+lLCv/wBsun/1v4uXWYT+tJD+rX9N/FxrMI/Wkh/Vp/hv4uNZhD/SlX9WX+Hfi41mD9aaP9WX+G/i41mEP9KeP9WX+Hfi41mD9adf1Yf4d+LjWYF+lNX/AJY/p34uNZhb9aNf1Z/p34uNZhD/AEpf+mP6d+LjWYQ/0p0v+WH+Hfi41mEfrUL+rH9O/FxrMH61H/S/9O/FxrMH61H/AEx/TvxcazCf1p/+mP6d+LjWYP1pv+mP6d+LjWYF+lNX/lj+nfi41mE/rS/9Mf078XGswfrS/wDTH9O/FxrMJX6Uf/TP9O/FxrMJ/Wi/6Z/p34uNZg/Wi/6Z/p34uTWYP1ov+mf6d+LjWYT+tD/0z/TvxcazB+tB/wBM/wBO/FxrMLfrP/8ATX9N/FxrMN88NfFTTd7QybUcb6P1DF9aWHK53vVadF3kZdNutJcGqcOHlNRbKN4NAAAAAAAAAAAAAAAAAAAAAAAAAAAAABw9X1nTNHwp5upZEMbGhznN835IrnJ+ZCZHhW+/GnUdW73B0VSwtOdYu7Wl66uXFr4qfkXvnK11w8vuXJSk5SdW+bZgY2/IBVlFZAYZFwZYJlRjdO0I7na2bt7Cy3larCd2Vtp2bcVWNfKz5nc9rf3KadqYjPm9GxelZzZvr8VNuKHR3d3o8ijTkflP/W+o4w9vzaKfnU2wuLtXuHL1R/611P8AafNo4l/xT2/KT6YXoLypHSv/ABrqONUnraMUfE/bymnKN5rtpE1P/G+o+ifNoyPxW27FLohfrX5UewxH/Guo9dK/Ooy/na2zSjhff8FE/wDWep/tPnUYNU8X9Khg3lptq5LNlGlqdxUjGvad+n/4xu645kxp+jF+ujH7fN5Jl5ORlZFzIyJu5eutyuTfNtn7fa2q7dYrWMRD5drTPjLjM6sooVCjAcQogJpVeckiKFQoFQ0EVoQRQCKBUpEkZIojTPAxLcM0UyS0yxMqukFWRBagCgAilGAAAyBEMogBVlDiEAqAFQgBPCoE1QEdVAI62A6mBDKO22lgadqG49PwtSco4WTejauyg+mS6+Co/TQkj3q94F7EtWXNWb8qUrW9LlXi+BjLpph5Tbjsie7PyanoV6zl+1Sw+9u5clBTUnFN0i3RsrM+D0SXgvpFqHVLTLVPNl3n/EJldLhfmt0Lh/6Vb9HtV77FFTDL+avRHBSWl2kn2PJv/YhcKx8LtG5vSrKXnyL/AC9FAYSvDDSGk1pVijdFXIv/AAIGC14aaLO4ofRuOm+Fe+yGDDmy8HsBW5Thp2JKST6Yu7kcX5OZMrpef7Xz9m6hun6B1bb8cC9KUrMJd/cf2+L4QlWlOqjS85qYYmcNr8RvCrScXQvpbb9iVt4/r5FnqlLqtv5S6m3WJIbx4eDx5wdSsCiBZJgdntrcGobf1rF1bT59GRjT6kvkyi+EoS/cyXBliWZfXu1NzaduXQsbV8CX2q/H7Zbb9a3cXx7cvPF/CdYlHblAAAAAAAAAAAAAAAAAAAAAAAAAAANJ314qaHtiM8a21navThiQfqwfluyXxf3vP0czM2wuHz/ufd+u7kzHk6nkOfF91Zjwt20+yEew5TOR0TqQVZRFC4FXWvMYMqOr4ghSSKjFJeYoxSVAkscqFRim32AlhlUqMckBWnE0ijaJgyr2FQdCoxuvkKKcajCIq6lCoUbAVAdTQQqAqBDYCrAqwIRFShIyxMNMsGSW4Z4cjMtMsTKroKsiCSCQuE0BgAUBgoBDQQoUKAwUQCkQhRBUdKArQCHFlENMBxAgCQFSompBksXp2rsLkH0zhJSjJdjTqgS+wtt6la1rbmBnp1jl48JTp85xpJe4znLpWcw8R8T/AAy3Xlb2+mdDw+9V6Nq/OanCDjkQ4P40o8+hSNxKWjL1/D3LqHsVmWTo+Ur/AER79RdhxU6esk+8XaZwsStPXZ3E39C5PnbeP2ei4DLiS1nOVxd1pWT0OnWurHVaeRu7wCKrVdUjbanpl91p3dZ2OC/lAJuatqM+mX0Vf6LdKJ3MdLq8smrjYEYuqZNmMk9GuSl1Ob+24/B+XjMo5X5RalSq0idFzrfsdvokyLl5F4h+HGu6/ub6b0bGtYE7kYyyI3L8E3ei+FyPRXmqe6aiUtGXru1/pK9pFqxrMbTzJW+nLjbkpwc+Kk15p/GMyUy8G8Sdmz25r042ov6Oy63cOa5JN8YV/cm48S0Yaj0hgAUA33wh8Qbm09eVjLm/oXUGoZkeaty5QvL978ryr0I1WcMy+p4ThOEZwkpQklKMouqafFNNHQSAAAAAAAAAAAAAAAAAAAAAAAAYM/PwtPxLmZm34Y+LZXVcvXGoxS9LA8R3743ZeY7mn7ZcsXE4xnqDXTeuL/u197Xn+N6DnN1w8mnOU5uU5OUm6yb4ttmFQBVouEQ0BRxfoAq4hFJIDHJFFGioxyiqhGGcSpLFIowy8oGJlhFJMoxtlRVsqK14jAhtlgRRsCKAQwFAiekBQBQJkCq8QIYEekCKBV0q9hJIZIwflRmWmaEKfKRluGeMY9jqZlpkSXlMqugqyRBZEXJQKkAEkCACgVAQAAQUQwIAAF5wi8YpgHCIVHdxCI7ooO0BRwdQFGgPoz9H7WY5+0r+l3XW5p159MX/AHq768f7bqM2apwenSwcWS9a3F+nzGXTDBkaViygoxt+o360E6LlzoMphVaViqHQrbUX2VfwjJhiu6PZfG2uh1ryrx4PtfDkXJhgelX5064xjyrR++MphP0Xfio9MYvpTS7FxLkwm3pc++crsYyg068ePOqBhmemYrbbt8+fF/CDCVp+PGcWrMWq+tX0elkXDkRs48XVRgn5UkBr2/tp4m49u3sJ9MMq0ncw7joum4ly9EuTEThcZh8vXrM7N6dq4qTtycZLyNOjOkuMq9IQcQHIYHvngP4je148dqanc/znHi3pl6b+Pbjxdnj2wXGPm9BuJR7MaAAAAAAAAAAAAAAAAAAAAAADVt6+Iug7VsOOTP2jUZRrZ0+211uvJzfHoj537iZJtgfPe798a9unM77ULvTjwbePh2+Fq2n5F2y/dPic5nKteaIqKDCIcQFEBDRSVXyArR0CKNBFZIKxtFSWGaKjDJBGGUSjFOAGNxRUUcUUUlFFRRqJUQ1HyFFeDAii8gEUCI6eAMnICahEVClGBFGElAWFaAQAAuqV7SKvGpmVZoMy6QzxbMtMi4kVdIyLpBVqUIJoAoAC5TQBQIUAigCgEUAihQoBFAIoBKVXwAyq3RecCHCpUQoUAmlAABgUYHL07WdW0ycp6dmXsOclSUrNyVttLkn0tAdj+Xe9O3Ws3+Wn8IwMb3rvBqj1rNp5PaLlP7oAt57v/wCM5q9F+58IwIe8N1vi9YzH6b9x/wAYA927pfPV8z8Iu/ZAV/Kncn/Fcv8Al7n2RAe5NxS+NqeXL037j/jFEfT+uv8A9xyePP7dc+EKj6a1h887Ib892fwhE/S+qy55t9/42fwgQ9Qz5L1sm6/TOT+qEYq1qyiySEBQYCnAplfFysrCyrWXi3JWcmxNXLN2DpKMouqaYR9Y+G2+cbd23reXWMNRsUtahYXyblPjJfNnzXvdhuJG1lAAAAAAAAAAAAAAAAAAAUvX7NizO9fuRtWbacrlybUYxiubbfBIDx7fvjgo95p21X1S4xuapJcF5e5jLn++l7i7TE2XDxnIycjJvzv5FyV6/ck5XLs5OUpSfNtvizCsfGpcIcQFAiAFAIoUQ0QQ0BRxAq0VGOSAxTjwKjBJBGKUSjHKJRjlEIxOKKMcolRVx4lRRrgBVooigCj4hEdLAdIMnSAoAUK8k2DCVHmqcQIduXlSBhXo84RDiguUUQFkFXjExKssURuGeC8hmW2WKMjIiKlEVbh7oE0IJAAKAKAKAKAGgIa8oCiKIoBFAFAgBPU0UR1OgDqYEOTAdTAVZRDAJEE9JQUSCyiyhQgmgE9JRNKAWoRVkgiyQF0iokCyKqaBJAiHwCNi2FvPM2luGzqVms8aX2vNx198st+svSua85YH1npupYWp4GPqGFdV7EyYK5ZuR5OMvq+VG1ckAAAAAAAAAAAAAAAAA6Hdm9dB2vh9/qV77dNN2MS3SV65T5sa8v3T4EmcD593v4k6/uq87d6fsumRdbWBab6fM7kuHXL08PIkYmcq1EgmgRIUKgBAACGkBFAIaqyCrRRSUQjHKIRikijFJBGKSAxSiagYmiwMckVFGiikkEVcUBVriERxKIfAIgIhphSjAjpAlJ+WgSGSFqro5KLfYlVhpM7CjVuTa7OK/aTYIY5qHU+hOnZV1KkqOLIh0BYSoDKrwiZahlijMtQzRXAy1DLFMkqukZFkgqeJFO0CyRAowCQE0qAaAUQChQ6QIoA6QI6eIDpKh0gFFdoE9EfKUO7XlAhwXlAjoQQcKhUdBEWVp0KJVthUuDQENMCKMC1AiUgJUQqUvMUX6RgT0kRdRAlFVNAiaBEqPEIOAFXHzFHrHgd4iLSc1bc1S506fmT/AMyuyfC1flw6X5Iz/YfuliR9CmlAAAAAAAAAAAAAAG0k23RLi2wPK9/eNmFpruadtxwzM5Vjczn61i2/3FPukl9b6eRmbDw7UdS1DUsu5mZ+RPJyrrrO9cblJ/2PMZHHpUBQCfMACpCFAFOIBoKigQoBWgENAUkuARjkgMcolZYpLmBimu0owyRRilFlgY3HzFRSSAo0yoo0BVqgRHTUphVxAU4hJGuZUQkBPSyYUoURQImjSqFRSoCnZQKmlCCUnQirKvk4EWGRIzKwyKpGmWLJLS5MC1CYVKIJoqBUpASkgJp/YJgKAOwBQCKASkUQ0AowIoEKAQ0ygkwiHUKniBHEIigABxLgXTl5aEEqUgJ6m0BIBKoVKRUSkMKlKhRNCCwFkgJSAlIJlagTKekqFOAEBCgMj/Z7GEfSHgx4jflFpb0jUbtda0+C9aXO/YXBXPPKPKfuPtNRLb0ooAAAAAAAAAAADq9xbm0Xb2A87VcmNi1ytw53Lkvm24LjJ/8A4ZJkeAb88Wta3K7mHi9Wn6O6r2eL+2XV/wB9Jc/3q4enmZmcq0NERPYBNColIipoESkFTQBQBQGU0AhoCKAQ1xCKMoq0QY5RKmVHEDHKK4hGJpFGKUVQoxNcDSMUkBRpe8UY2lUIq0BVoCrpyKiKL3QC4FSSlOIXA0EhNECUNeQIjs5BcHuAQghVho8xBZcHQirU7SLC8UZVeMXQiwyRTDUMiTIq6RBNKkVPSQTQKJATQCaAEgCQChQa5EQoAoUKAVoEAFAIoBFGUW6AIVsCe77QIVtgWUHUYBQAsoP3SiVbZFW6HSlOAEq2yiVBkE9DAt3YE9BUSoEUUQiekqJoESAYSRAhBUQBztC1vP0LV8bVdPl0ZWLPrj2prlKMl2xkuDA+tNp7mwdy6Fjathukb0aXbVau3cXx4P0P9jiabduAAAAAAAAAAeeb98YdI2/3mBpnTqGrqsZRTrZsv/vJL4zXzY+60SZHgmua9quuZ88/VMmeTkz4dUuEYr5sIrhGPmRgdcEylVKJ4kE8SmUqpDKSiUkBNUiBUKVCABlEdhFVbKijqEVaYRRogq4lGOUSjFKBcIxSjTmMCndNqhoUlZaVapIIxSguXUijG4ICrjw9IFOgojoQEOKqgmTpQEUKFEEydKXMCUlzArQBThUEIp5ACiFhNPNyIqaISLJEVeNDMqulQyrJFcAq6RGoWSAtTiQTQCaEVNCiUiYBRBCekYDp8gwHSwHSEKMKjpLhDpZBHTwKqKBCgCgBcvOVQglecqFWA48AJVQJqBKAsvOBaoFk2AUqIC1VTkBZU90CaATTiA6QhQonoIiKFBxYRHSBFC4RFCCHUo3jwo3/AHNq64rWVN/Q+a1DLhz6HyjdX72vGnNEysS+n7dy3dtxuW5KduaUoTi6pxaqmmvKaaWAAAAAABw9W1jTNIwbmdqWTDFxbfxrk3Tj2RiucpPsS4geEb+8Z9T1nvNP0Pr0/THWM79aZF5elfc4vyJ18r7DEyPM0uJBNAHIqJ4t1CSmgEgykBwAkLB2AS/OER2BclQZAAEOgFWBRhFWEUlzKMbqUUaLCIdvyuhUY5W0qtvl5AOPKvnAxyj5CijiwKSTXYBVryr0FFelsA4hDpdQSrRlBogUKh0kENFCgIOlhUdL5ghKT8hBPT2MKsl75FXjEkqul5STAyRRlcrJeQKvGpFytGnaFTSoVZICVFBEqLIqVECaAKAEgFAFAIoyiHEgONSodIEUqBHT2gKcPMBHS+0BRgKAT0hMrKPmC5T0cAJ6AiekCVGoJSosCaBcrKPYBZIC1OFewErJDCJUeJUKMCeleUCOkrJ0gV6WXAhxAjpGBVoYFWiTA938DfEK3kY0Nr6jcpkWU/o65J/GguLtelc4+95BDUS9iKoAAAANF394u7b2lL2JuWdrE0+nEsxnONvhWt+cIy6F5vjPydoxLM2iHz7unfGrblz3l6pkXLvS2rNiFm9G1bT7IQ6eHpfF9rGiWdcOojfg+XXw8tq6v4pNErrhZXIttJT/AJO5T+5HLlOZC0pRik31VfZ0T+xGiV1wmq8kvrZfANEprgjOL5V+tfwDRJrhPeQrSvH0MaJNULNxSq2qPlxQ0SaoWik1VThTzyiv22NMrqgThyU4V8nVH4RplNUEpW48Hcgn5OqPwjRJqhPqU6nOFPL1R+EaZNUCduTorkG/30fhGmTMIdy0nR3IV/fR+EumTVBWCVeuCXl6o/CTRJmCLhJerOEvRKPwl0yZVc7dadca+TqXwk0yupMnFLjKK8/UhpldSIuMviSi6c6NfCNMplRyjWnUq+lDSZRKLXPgi6Uyp0OXLj6BpMqOEq8q0LpMkoTjxUWq+UuEyxuF5qvQ3XtoMGWOVm838STfoYwZY7mNfi+Nqa9KYwmVfZMlqsbU2vL0suDKnst9t0tTfm6WMGVJYuQudmaT8sZfAMGUex5P94uU8vTL4BhMqrEyHys3G3+5fwFwqJYmTz7m4qfuWMJk9iy5ce4uP+DL4BgR7Hl/3ibpzpF/AMCPYstL7jcVfLGQCOFltcLNx050i/gALEyHwVqdV2dL+AGUPEvpetbmq+WLAn2HJXKzP61lD2TI6qd1Ovk6XUio9lyFzszXn6WBKw8ijpZn5W+l/ADJ7HfT+5y92LIZXeHfjStuXuJsYUWNf4/a5fWsmFWWPeT+JL3mTC5ZVj3V8iXvMmBaOPd/vcveZMLldWJ/NfvDBlLsTi+EJNehkwZSrVx/Il7zGFynup8umXvDCxKe5uUr0v3mMGUq1OnxX7zJgzB3c/mv3mMLlPdz7Iv3mMGRQn81+8MGU93NL4rQwZR0S+a+PmGDJ0P5rGEHB+RlwZQ4SS4pjBlHRJ8ov3hgmR27ipWLXk4MYIlHRJ8ekYTJTzMuDI15hgyKPm4kwZR01fL0DCnT5i4MrKAwiaMYCnHzDC5TSvEYTKekYMpURpVNK8kMCUhgSiYMrKnYMJlPH3CqskTCJSXIuEPRxGCShQCIAURRDQENARwXZUCskvcILY2RkYuTbyca7KzftSU7d2D6ZRkuKaa7STA+pfDXfVjdmgwvTko6pipW8+0uHrU4XIr5s6V8zqitRLbgoBhzc3DwcW5l5l6GPjWV1Xb12SjCK8rbA8X3z415GarmBtdyx8bjG5qUl03Z9n2lPjBfun63oN1rlx3NzHk8pmpznKc25zm3KU5OrbfFttnXDz5QrUvIMIurdOfAuDK6j5GAdtsGRWhgyOKpzSGEyhKHz4v3Rgyt0x7ZL3xgyvG2vKmMGV1bi+1e4XAuraGDK6tryDBlPd8BiFylW15hgT3a8wwLd3HyIYMp7qPzUXBlDtQ7Yp+4MGTurfzV7wxBlKs2vmKvlohiDK6t26cYr3hhMnc26U6VT0DC5UeHZfyI+8hgT7HZ7YRfuIYMiw8f+9x95DBlHsWN/eofWouEyq8HG/vUGv3qGDKPYsf+9R95DEGVXp+PWvcwr+9QxCZVen4752ocf3KGBV4GOlRWo09CGIFHp2MnwtQ+tQxCZlSWnY7+9R95DEGZUenWaNd3FeaiGITMsT021zVuPuJDEGZUlpdt/IjX0DEJmWP6Ljy6VT0FwZlaOkR7IL3kTEGZX+hotrqgn6UhiDMskdJhy6I08lBiFzKHpEF8W3FehIYgzKktI4/EVBiEzKv0WkuMFT0DELmUfRqrwgq+UaYTMrfRteaGIXMpWnU7OA0wapStOjX4qJphdUsiwE1RrguwaYNUrLBiuUVTtGmF1ymODbXyENMGqV1g2nzghphdUrLBsr5CGmDVK8cCx2QSGmDVK6wLVKdBNMLqlK0+x8xekaYNUrrT7Na9P7Y0QuqT2C1839saITVJ7FZ+b+yyaIXXKfZbapRcvOxpg1yn2W3Tk/fY0QuuUPEh2Jr3WNEGuUexw8/DzsaITVKfZIvyv3WXRBqlaOLGi4P32NEGuU+x232P32TRBqkWHClKOnpY0QuuVnjR5cffZdEGuRYirXj6ajRBrkeKm+PEaINcqvFjVc+A0Qa5R7LFcVXyk0QcyUezpOv7fEuiDmSdz0rh9QmiDmSo7VHXhX0IaIOZKjtOv9hDRBzJO7a7F7yGiDmSK1xrwr6ENEHMlbu+FKRp5OlE0QcyUq3FfJi/cRdEHNk7q3w9SPvIaIXmSiVuD+RH61E0Qc2VeiPH1Icf3KGiDmyOFvshH3kNEHNlFI1+JD61DlwnNlPTB/Ij9ahohebIrVtfe4+8hog5so7m05V7uHo6UNEHNlPc26qkIqnkihy4XmynurLXG3F+4OXCc2VfZ8d87UfeHLhebJ7LjP71H3hyzmSeyYtKdzH3hyzmyrLExefcx/ZJyzmy42Zp1q9acLS7ib++QVX/AG1UOWc2XO2brur7Q3Fi6hiT9oszfdZeO6R7y1Li49VaVquFe052phum54vqnAzbGdg2M3HbdjJtxu221R9MlVVXlMPQzgeR/pOyy7HhzHNxZONzGzLfU1yULkJxb9KdKFiPFi8+D5DhubcE7it28u7KTail1e4ddWHHRkhufcU7itrJuubaSXV/YGo5a8d07gjJweZci+TTdfqFizM0Yr+79dt3VH2q5J9rcv7Amy128u30XWdW1C3OV3VJY7g6Uk48eHnoeXf6qaT4Rl0rsRPq7SxHOvRfXrco0bVFOK4J0rz7TzW7haP6Wo6eOK1vSoX7lyN/Vrr6KJPvVR1Ve05X7juekNR01eKNP2np2ZjzuXdQnGcZ3I0U4tUhJpc/Mc93ue7WcRDVemrMebmY2wtIu2Y3PpG7GUkn01hVeZnG/d96Jxpbjpa8WKOxtPdi5cjqNyMouSjGXTx6a0fPtN/lt3MRpZnpa481MfZeJd0y1mrULjlO3G47aS7Um0uPYW3dtyL6dJ8WuM5c1+HuOrblHVLvKtKL7I5R3vczjTC/ErxcPJ2WrOmXM6Gp3HKFt3O7lFp8FWj9Y7U7veb6dLM9LGM5cuWwZd3CcdXuSjJxXxX8p/vznHe75xpa+HHFbJ2JfsY87q1e61CLk0k2+HkXWKd8tacaSejiPVxszZ+Zi4tvJjrF2SnO1GlJRork4xr8fs6jpt95ta0xp4sz0kR6uRe2TnwuWU9avN3ZdMZdMnR0rx9fzGK98tMTOny+qz0ccTO2hqmJZVx65fkq0dFJ9jfz15C7Xe5vONP6lujiPVTK2zrlj2Wmu3msm7G3Ws49PVFyT+P5qG6d6mc/t8kno/qyXdpa77TbtXNevync4Rm+uS5Pyz8xmO+TNZnT5fU+H44yrm7S13FjBz1y7KMnRfH50r88u13zX5VJ6LHq6ndODuDQMezeeq3L6vScKRnONOFfKz1dF3PnzMYw57nTafVr1rceuSnGPtt5dTpXvZ9p9G25iMuMbTd8jbO6Me3G5LXJdEvJO52Jy8vkR8ane4tOIrL0z0ePVlyNp7rsWe9euS6axT9e58ppfVMU7/W040ys9Dj1cXI2/uu1gxzVrLnbk4U+2XK0nJRTdfJU6073Wb6dM5Zno5xnLLlbb3bjqDua0+mbomrl1+/wM7ffK2zisrPRTHqyZO1d341l3Za16qar693m3TsRnb7/AEtOIrJPQzHq4+RoG77GJbynrHXbuStxjS7cf3WSinxXZ1HSnfKzaa6ZzGf0SeinizX9tbzsuKlrKXX8Wly75VHsj5ZGa9+pbyrKz0M8U5m2t54tl3rmspQXN95c4e9Em13+l5xFZLdDMerDkaDvSxj2r71ZSjenbhGl2599kop8Y+c3TvlLWmNM+Gf0SeimPVbJ0DemPKEbusQj3nxftt3jxS7IPtkhTvtLZxWfAnoZj1Wy9ub4xbPe3NVh0JpV7y4+fogybXftu84iJJ6GY9WLI0PfFixayJanCUL07cI0uz53ZKMW6xXDiap3zbtaYxOYz+iT0UwyXtv76tXIW7mqW4u46Q+2z48UuyHlZK9+27RMxFvBZ6GeK2RtzfmPb656lb6W0uFyb4vguUGTb7/tXnERJPQzDDkaLvrHxYZMtRhK3clbjGlx1+2yUYvjBfON075t2tNcTmP/AKZnophe/oO+7Liruo2l1/FfeS9HZB+UlO+7dvKJWehmGW/t3fePb7y5qVqMKpVc3wq6L5Bmnf8AatOIixPQzDialh7207S56nc1GFzHhFTpCbbak0lROK8p22e8U3NzRETlm3RzEZaz+Wu4W/8ASrnvx+A+prcOU2jTcXe+fpcNRtajCGPci5UnL1kk2nWkX5D5e93jbpuaJicu9ejmYy5djQd+37Su29TtShLk+t9nDtgcb9/2qziYs3HQzLFZ0jfWRKcbOpWZu26TXU00/P6hu/fNuuMxbxZjoplXF0rfmRYuX4Z9tQtznCVZdtuTi/keYX75tVmImJ8SOimfFlx9B37fh3lvULLjWnxvhgZv3/arOJiWo6CzHb0rfd2/Oxb1Cy7tv48eqjXZ8w1bve3ERMxOJSOilGNpm/7/AH/Rm2649x2p1kucUnw9Xzi/fNquMxPikdFaVsXSt/ZUXOzqFicYujakufP5g3O+bVPC0SR0NpI6dv6WTLGjnWXejxlDqjVf2hZ73tRXVicHwbFjB8Qrt/Ix4ZVrrxnGNyrhSsoqSpWPkYt3zZiImc+JHRWXx9P8Qb7krWZZk4OkuMeD5fN8xL982q+eSOitKJYXiGshWHlWe9fyaw7ePzfMX85s6dXjg+FZWOP4ivMniRv2+9twjclxt06Ztpc1+5ZZ73s6dXjg+FbOF7VjxFndlajfsu5GvVGtuvD3POLd62YjM5x/A+HYu2/Ea1djauXbSnP4sa2uPZwLXvezMZjOP4E9FZE34jwyreK3bd25GU4/cqUi0nxf74sd62ZrNsziE+HbOF0/EXv+467LvUr0Vt1oPzWzp1eOP4Hw7l+XiNYce9dmHU6KrtcWKd62LeWfYno7w4eta1vzR8eORnK3C1KSgpRVuXrNN/UO3T9z2t62Kz4s36W1Y8XTR8Stw/Pi/wCBH6h7tbly5bDYzfES9jW8qNu0rFxKUZS7tcJcubPnW7tsxbTnxdo6S8xlmjc8SZwU4WLUovlJd21/dGJ7308TiZX4d1bWX4i3Oru7NmfTwkk7bp70jVu8bEec/okdJdTH1DxFv253beNb7uEpRk33ao4OkucvKi27vsVnEz4kdJeWS1m+JF2PVaxbU48uqLttVX8Ilu8bFZ8ZI6S6I5/iM7jtrGtO5H40E7ba9xSLPd9jGc+B8S6trVPEW5eu2YYcHcs07xUhw6lVfKLPdtiIiZt4Snxbrw1HxGm3GGFbk4/GoocOz5wnu+xHnY+JfgiWp+I0JqEsG31vlF9Nf2JiO77ExnUfEvwUes+IMciOO9Pj30ouah0r4qdG/jec1HddiYzq8CelvnyT9M+ISudD06HX83p/7Q/K7GM6vBPi34FzWvEC2l16ZHjy9X/tCO67E+VielvwY724t82ejvdMS7yShBdEuMn2cJGq9y2beViemvHomW4N8xopaVSvKtufwiO5bE/1QT01+BLcG+IKstHr5+7n9RiO5bE/1Qnxr8FLm594W7Tu3NJpbiqyk4TpT3zUdw2ZnGqCenvwTHdG73FSWjvpfFPu7i+qPyGznGqE+Pfgt+VW7kv9yyfn7u4y/P2fug+Pfgr+WG6EuOjSdP3Fwvzdr7oORbg4E/E/LhNwnh24yi6Si3NNNHoruRMZhiduYR+dK+/9Ut+/IupNEpXiff7cS39c0MmiVvzlZHCuFDj+6ZcppPzlXf8AYofXv4BkwleJc/8AYY/Xv4AmErxLn/sK+vfwBcLQ8SpzkoRwKyk6Jdfa/cGTDkPf2WpdP0Y5PyxudS99Joal0q/nDyVFylpkkl+6fb7g1GlEvEW701+jZJVSq59r/gjJpZPy+yF/7ZPycJr4CaoNMq3PEWVuPVc06cUnRvq7feGo0yrc8RlBpT0+cXJVScuL/YLk0sT8TLNf9ClT9/8A2BlNJb8RMO9ejGePK2m0uqtaGbRlqImH2VsKn5FaFKKpGeDjzhxr6s7alHj6Ged7I8nfBWgePOnrO8J9wW/lWrML0H57d2Mn/a1LHmzfyfD2A77u3IWnFdC636rcpcuCpxN2cq+Tmwxs5y61O3xrHhFt0UepJdr9wy04up28iMbV270ON11XSmmqcaVfNesarLMuFewr2RkWYWY9Vy61CEV2t8CbtorGZNvxnDY7Xhtrjh1SvWIUVWnKXBef1T5du6bfCXp5Mn5CZ0odaz8Lu48597w910L+Qr9tvZOVPFNrZOZdl3VnUcG5Pn0Qvpv3khPcK/bb2OVPFmj4ca5z9oxf5R/YmfyVPtt7LyZRd2BrUPWnkYsIvhWV6ir7qH5Gn229jlTxI7A1279yv4txLn0Xk/qE/JbUecT7HJsuvDjcqdeqy6dne/2B+T2uE+xybEvD7c9eLtJeTvkT8ls8J9jk2Q/D7dUvixtyjy4XY0/bH5PY/wBQcmy0fD/d0XXoi/MrsfhJ+T6f/UHKuLYm8/mcPJ30fhH5Lp/9Qcq6stib0lVdy2udO+hThy+UX8l03+oOVdZbJ3vH71N+Sl6P2RPyPTf6g5V0LZu++21cdOzvov8AjD8h0v09jl3Q9mb7k19outJ1j9ujwflXrljuHS8Y9jlXXW1N/RX3LI6uxq8vsifO6TjHsvLuh7Y8QPlWsmS/wyf8cR1nSca+yaLsGRtHfOSlHIxr92MeKU7ikk/dkdKdf0tfKYhJ2ry6+xtTcV2/csW8C87tmnWulqleXF0R6L9dsxGZtGJZjatwdvHQvECiU7eZKK5LvG/4x5PldJxq3o3FvonxEpTpzunyd5L7InP6P+007jHc0bxAnFwlZzZQ+a5Sa4Oq7TUdR0kTnNTTuMn0d4hvhchnyS5etN/VM87o/SamncPZPEZqklnuPk6p/CI3Oj/sMbn1Y7mB4g3IK1K1nO2mmoProul1XPyUNRu9JE5zUxuMiseIq+PHUG1y+6OjM6+j/sP9z6krfiNOPTcjnyh2xfeCJ6OPLQf7n1YrlnxBuRVudvPlCLjKMXGdE4usWuHY0ai/SROc1JjcZP8A/QZU7yGfJx+LWNx0fvEiekjy0r/uF274hXEo3o504p1o4T5+8Kx0ceMaSZ3FLs9/3YK3O3nO3FxlGLtzonBpx7OxosR0kTmJrlP9xf2rf7kpTWc5R+K+7m2uNfmkinSf2rm5dzd/3YdN+ObOHPplal+10iu30kTmNPuTa8sd7M39egrU4ZkrUXGUYu1KicWnH5PZQtadLE5jTn+KZumWfvu5JSuxy5uHxW7LdO35vmEbfSx5afc1XWu6t4gXEo3va3FNOjtPmuXySV2OkjxjT7k33GDLzN7ZeJLEvwyp4skk7XdOlFyXCJ0pTpq21Rp1fxSZvMYdG9Ozo31Ydi4rz5W3F9X1tKnu51MZzGHLRLu8XM3njYkcS1HJhixVFa7p0o3XtieG9OmtbVOnP8XWJvEYciOu78tR6LMsmNvnRWfLxfyTnbpultOZ0+7Wu7Fb1nellvufaISn8dq1z/tTVtjpp88e6Ra6LWsb3tWpWY+0K1ccpTg7NU3NtyrWPbUtun6aZz4eH1IvdmjuXfdpdFqeQoc6Kyub4v5Biej6W3jOPdeZeGK3r+87VyVy330Ls69cu5VXV1+b5TVum6eYxOMfxTXdFvcG9rLudE78Vek53PtS4yfB84+YW6Xppx5eH1I3Lslrc29cdNWJ3YxfF0sx50p80l+j6a3nj3WNy8KLcu8IXXfjK6r8uEp90q0f8HzFnpOnmMeGP4pzL+aLe596Wr129Gd2Ny9R3H3S4uKovk+QW6PppiI8PD6nMuvb3ZvKwvtE5x6uMmrMeLrX5vnJbount5/9V5t4Ue7t3d97Q7k3kUp1u1GtPrS/B6fTp9P4pzb+av5YbwjlSyu8mr04Rtyl3UeMYttL4v7pj4PT6dPp/E5t85Zbe9N2W5u9bnS7OvXLuoutfc8xLdB09oxPl/FY3bwi5vbdN27G7dmp3YfEbtR4dvDgWvb9iIxHlP1Sd68qz3tuyWVDJld+224yhF93FKkmm+z9yI7dsaZr6T9V512Vb43N3iyeuLvr5fdLlSnkJ+O2NOn0/ic62coyN9bky+mOTKFzo4xi7aXH3ENvtuzT+Xw/+Sd60+bh63unXdYxo42bJStQkppKCjxSp2ek69P0W1s2zXzZvuWt5uiUJV5cT36occNoxd9bhtYlvDUoOxbjGEU4dkeXFeg+ZbtuzNtXq7xvWiMOTHxI3PagrUHaUIqiXd9hxt2jYmcz/wBWvkWhhsb+17FlN2Fai7r6rj6G6v3Wdb9s2r4z6JG/aDE8QNw49mdmCtOFyU5SrB1rNtvk15SX7Xs2mJ4Eb9oZcbxE17Dg7di3ZUG606HzfumdztO1eczMrHUWhWHiDrNrInkwtWVfufHfTLj7nUat2vamumZnEJz7ZyY/iNr9rIvX4wtOeQ05pxdPVVFSjRLdp2rViPHwI37RLNY8RtbxW3as2Kz+MumT7W/neczftG1fzmVjqLQrPxG1ieRHKlZsq9GlKKdOFea6vOWO07cV05nBPUTlWXiTrjzo5bs2e8jB20qSpRtPy+YR2jb06czgnqJzldeI2rRyPa/Z7LuvmvXpypy6ifidvTpzOD5E5ytleI+pZij3+Na+18Y0648/RIbfaKU8pnxW3UTKuX4latkOw5Y9pdxcVyKXVxaTXHj5xt9n2658Z8YSeomV7viNn5FyF+5iWuuz8VpyXbXyinaK1iYifMnqJlkyfE7Py7LsXcS2oSpVxlJPhx8pjb7LSlsxLU9TMwxXvEnNnp88FYsFCUHb6+qTdGqGo7RWL68+LPyJxhll4l5V+xCxPDilCjUlNrivcMx2eK21RK/I8MMy8Vb8bPc+wRUUulUm00qU8hznskZzqa+T9HHw/EaeFbnbt4nWpvqrK42+XoOu72nXMTMsxv4a9iysZuVmZl6Dk+N12lxXS3x/ZfM+tt00ViHntOZy6LIvShcfTD1a9nYd8sYyxQz5TrBQp52IlZrhs1rbFqGNYu5uo28S7kQVyFmkpvplyrQ6YeedzPlDItAwP+LW36bVz4Cs6voiWiadFVeq2l2Vdu4gRM8HMw9pWcyy7tjUbc4J06o25viSbRC4twYsrb+Dp04yydXs2JppxUoTr7wi0SYtwWtXcGUu7ta9jNyfLu3FcPcoTELm3B2c9C1GEFcnqFpwUfVfdySSa58EZzVc24ODPQtcyMi3ZV2zcx5RjcjkfIouC7Ks4dRv12oy6bUa3Mlt/VLSlL6Rx4JPqk2pJcPcPH8+fsl35H1dbfx7ck4y1rCrWr9b0+bzm46y32SnJ+rJa0TJzpxuWNQxLztqnqSb4Py0RJ66Y/pk5GfVF/b2qwUpWrmLenCLk7UX6zS81Cx18esTB8drdu7O/nW4zioyU4xcVw7aH0KWiYy4Wrh+iO2bEcfbek2I06bOHj21TlSNqK4HJ6I8nZBXUbwwPpDaes4NKvJwci1FfupWpKP7ISfJ+deRCVu/KDqpR4P0p0OsuFZWsu0r0O96u7r61OfuGWnKzMW3bsqcLFyFKVnOtEIJczRbihqGDc+bft19Dkjj1lc7c/wTZnF4blqm6cT6bytFWFJX52pWnlOfCkoqtIU8h8Xpuhtatb6vDOcPZbdzmHmmt7iyb2O9MViGPaszarbck3ThSVXxPuRVxiHS4uVexr8L1qcoTg61i2n6OBcNPQ9E31l6hDMTx4RnjY8r8Em3VxpwfvnKduCZahuLc+ZrNyDux7mEFTu4Sk4tpvi0+3ibrWIHH0TW8rSc63lWnKSi6zs9TUZqlKSp6SzESrfbG/snI0LL1GOJBXMW5CDt9To1Ptr6TnO3GUmZaHruvZWrZ0sq51W06dNpScox4JPpryrQ3FIgcrbe683RciVxdV+zKLTsSm1Cra9bt48CW24lcy3XL39fs6Fh6pbxIy9pnctytub9VwfDjTtMcmpql55qOs52dm3cm5euJ3JOUYOcpdKbr0pvsR00Vj0R3O299Zuj27tu5GeZbnTohO5JKFK16eEudTFtms+i5ltevb/ycHFwp28ZThnY6vJ9404uXNKi7DEdPXgTaXnNzWNVuXHcnmX5Sbq27k2/2zpyq8IMtm2/4j5+m4ns2TG5mPqrG7O9JOMaJdPFS4cDFunpPpC6pd7u3f2XgXb+m2bU63LKdvJjdcXHvI8Gkl2ekzHTUn0hNUtBW4td6up6jk15172df2zfIp9sexmXpWwfEzCWCtM1vKvwyev7Rlvqu9bnVdMu1Uqj43ce2za0W26x9Y8no2tzwxL0jVM7TdP0KOfl50rONF09pUZSlJyqkumPHmfA29rctvzSKePB3taIrnLQd7b4jpuZg3sZ3svGlYUYPvHZUpp1lNx6ZVfFH6Tt/QaazrrGZn+Lybm5mfCXmWRu3cd+/K59J5UU3VRV65RLycGj6fxdr7Y9nPMu+254m6nptm5azZ387qaduUrzTikuK4qVTFuj2p/pj2WLy2fX/Ee7psMdK1duPLx434SV3p6etcFyfIxHRbf2x7LzJeeT3lumdxzerZaq6pK9NL3k6HT4e19tfZNU8Wy6B4qahh4rs6hcv5lxy9S73lGo0Spy8xi3QbU/0x7LG5Z325fEi/pk5YkVfd27ZU7d5XFROceDo68jNeg2vtg5lmgfl1u+U3N6xlJt1p3sqe8nQ38HZ+yvsmu3FtOgeLGbj4qsaldyMnIc+F6Mor1XRJPkYt27Zn+mGo3LO43P4l39Mu5GnweR7V3dbd+MouKlONYuj8lTMdu2Z/phObZoa8Qt5uTk9YyKvjTq4e9yN/jtj7KnMtxbZt/xayY49vH1O7kX8uU6d9BQUaSfDtjyMT2zZ9KwsbtnZbn8Tr2m3crTrcsiObCH2u8uhwUpRrF8X5/IZr2zZ89MHNloi8Rt69Tn9L3qvjSqp71KHT8bsfZCcy3Ftm3/ABZv+z2cfU79+9mTn0u7CMFGknSPJr9o5z2vZ9KwvNs5+5PFCenTy8C1cyFn240tXOmDgpyjVPi/P5CR2vZ+2Cd2WjrxL3t1OX0tcq+ykKe9Q6fjOn+yE5luL0LYnidZzrDwtZzo29Rn9yv3Yxhbb6kkqpc6eY+X3HtdYiLbdf4xDttbs+r0G3jP2G5m3b+P31tOmZ6qjCCo5Vk15j4G5bTuRTFsfbxemI8MtY3ZvbG0LT8K/LLWS8icm5YihOsElTjLpXNn1u39ujcvM2rMViPVw3d3GMPL9R8Vt23sy7PD1CdrFcm7MJW7VVGvBP1X+2fbjtXT/a4c2znbd8W9bsZM3rWVPJxnBqEbdu31KdVR8o8KVJbtOx6VI3rNyv8Aidh2NIxtUk77x8mUoW4xhByTg6OvFI5/idnPk1zpaJqvi1um7nXZYGa7OH1PuYStWupR8/B/tnSO09P9rPNs5m3/ABe1y1l/+s5Lu4nS/udq319XCnZHgZt2jY9Kkb1m5XPEvBt6Pb1ZzuvFu3HajS3Hq6l5q+Y5/iNnyw1zpaRrPi/uS5n3HpeSreFVd1Gdm31clWtVLtOkdn6fh+spO9Zm0Lxf16OdFavkQlhUfU4Wo9VacKUS7TNuzbHpH6kb1m5rxKwHpT1RXZPEjc7ly7pdXVSvI5/htrOMfq1z5abr3jBrcs1rR79uOIkqOdmPU3TjXqqdK9m2PWJ95Znespo3i/uH2+1HU71r2Jv7bJWl1JUfLpXlLPZtj0ifcjes3ax4jabe06/qEL3Vi48lG7LuuKcuVFSpyns+1w/VrnNT3F4v6ismEdFuWZ4/SnOdyz63VV1XrU4G69m2fXPuzO9Liab4w7j9ssxzfZvZXJK9JWuKjXi1TtLPZtn6+5zpb3heIOkZuPk5GPejO1iRU78nZaon5muJyns+39fdrnNZ3L4vTtu1HQ5WL6km707ll+q0+CVek3Xs216590nel0+N4xbjV6HfWMSVttKf2qnDy8Ga/DbXG3unOl6roet6frunLI0v2bJuxm4X40UGlT5sulnwes6bk7mJm2nHg9FLRaHYQ29j46WVZ0/Hjl36e0y6Y0Tp2N07TxfMm06ZtbTHk6cuI8cOk3PuvRtClHGyXi283ue8lY6er1nWkapM+r2/oZ3om0zbGfBx3bxV5ne8Xtcd2Tt4GAoV4J2a/s1R9b8Rt/db3cebLY9teJ+nZmPc+mbeHh3oNKFLfCapxdKOhme0V9LW91je+jZMvdW3sONt5M8S0r0FctKUEuqD5NcDH4qONvdebDz7O8W81ZVyONpeD3EW1BytdTaT51TjzOv4iv3X92Z3fo7fbHiXg59y5a1fDwcToVYXXBKMnXlR1/bM27TEeVr+5G79G03dwbbtY1vJuLBjj3qq1dcIdMqc6eUx+M/uv7tcyODSNc8ULONn3LGn6VgXrNt0V9wUlPzrpodI7VHre/uzO79GXbviTh5+dHG1LSsDHtzq+/6FGMaLk+qvP0i3auF7+5zfpDcFq22JY8siNrT3Yi+mV1Rt9Kfkryqc/wAbb77+7XMjg1bc/iBo2nX42NP0nAzKxUneUYuC4v1fV7fdN17ZPre/uk7kcHXaX4l4GRnW7OboODG3dkod5GCXTV0q+qvBGp7Zb03L+7PMjhDebWVtS/GUreLgXFBVuOCg1FeV05HP8ff77t668HRbl3XtXSce3KxpWFmXLraSgoNKlPjUqar27cn/AMlkm9eDXLPiTojux7/bWJ0V9Zw5+80bnt256blmdccG84dzaGZC27en4cpzipK3Fx6lVV5I5z0W9H/ks1F6z6OHrmobO0rBnkz0vGvOLUe7ttdVX7ojot6f/JY1V4NQ/ODtevHbNqleauP4Dp8Le/ySzqrwblty1s3Xbdu7b0qFpXVJqHU3P1a/JT8x4+rr1GzXVry3TRb0ZdZ2ppX0dlXMCxcwbtu05uSbUZxXHokq8eRz6br9yLxFrRaJlq+1GPB5Hn+pNJc6M/TTPg8FXAwpN33Xyfs1FfNq/k3jddydvIwHF0lbxbNH5+lM72eXajwdVLWNQSpG86eSi+Axl00QxZObkXoKFyfVHg6US5cOxDLUViG2aRq2TouyMjUMeEZXVdpDqTa58anG0Zs6Uee7h3Hna7lRyctQjOMelK2mlSte1ssRh0dXGTjJSXNOoyTD0jRN8axrWPkYmTbtRtWLNVK3Fp8OHFtsxoiPFm048G7aRYppONF81Yx177b+oePrZ/3aQ59L/VLR96761DHzc3R7Vq13CTt95R9VHz7aHsrSMZd8vOXJttt8zY73bG7s3QHfWPZt3lkJKSuVdOmvKjXlM2pFvM8vFv2m5NzK1ZZFxdMniTuNLlxSPD1sRFIj6m3OZa3i4sLm57Fi3BPrvW49EfWq21w5s9vTT+xw3vN+iVm3G1ahaj8WEVFehKht1WASjGUXGSTi1Rp8U0wPzm3XgS0/cWo4cvjY2VetPy+pcaOvo89fNwLMbDuw75yVt/Ga5+4ZadplQg7NyntDXRwck6cOKT4eYQS4uJNxtxmucJRkvcZN2M1w518LNh3RBWt8YuVH4uRCEq+XqhT+KfO7dOdnHCZenc8Ly1Tc2k6zk65lXYYl67CU/UlC3JxcUqLkvIj2xPgVdU9C1lc8HI/kp/AXLWWx7GwNXw9Xm54l23bu2bkXO5bko1XrR4tLtiZt5GWvXNE1id6T9ivttt8Lc/gN5SJVeh6sueFfX+Kn8BMrls+2cbV8fQNbxXi3I95aTtqduXrOVYSpXm+lmZ84SZ8GrfQurN09jvV/wcvgNZXI9F1Zc8O+v8XP4Bky2uNnVH4evF9ll1wyunpduXX3b+2VX8LtJ6pLUlpOpP8A1W79ZL4Crkel6gnxxrq/gS+AGW17jt5+RtHQ4+zvqhGcbiUH1Lu/UjX3CR5yk+bU46dmv7xc+tZVyj2PKjJPupVT5UfYDLaPED2jJvabeVmneYlu5Jxi61nxo/R2ErCZ8WqLGv0r0S940uWTD72xmWLyhV27kZJNVrRpkMvfd42HkeF+Vwq7VyEl9en/ABj83T9vcY+tXfd/7X/y813h3l7bGkOFtSckpOaVZKkFw9HE/RVjxl5mjrHu9sWvSjTWTuLq+S/eKZbZvK7LI0fQpxsxjJ43rSiuPBKPT6F0mK+qZ8WpKzcpyZpcndXE69LdCmW4eI1xX56VchYjB3MSFyU4ri+vlF+aNOBmsJnxaerVynJlXK1pShdhNw6lGSbi1wdHWgMtq8Spwu6vjzt2VbcseEpyj8qvFdnYuBKeSNS7uXkNLlkxX3WTZuSh1xhOMnF9qTrQDZ/EzoluFOFtQbs23OS5ybrRv3KIzXyGqd3LyGjLPgONrPx7lyHXbhdhKcOVUpJte6Qd/wCI6t/lNd7u30Pu7feOteqTjXq96i9wlfIhrHSyqz4Eo2s7Hncj1Qjdg5R5VSkqoI+jsq317D3BDnSzKS+tXwH5brfDrdqXqj/ty8u3f3P5BaTJ2lK7Pu+i781d36yXp4H6aseMvK87UZeQ2o4vyAbjnTxpeGmn0tfbY5M4RnXk6ylJ+6miR5o01RbNKOMvIQbpOeJLwxtrupd7HKcYyrwU6tuXP5joZ/qRpijI2o4yIjcsOWI/DTLUoSdxZXB14d4+mj58ugn9Q0xJlVNH5ANy2/7G9g62rkZu5GcW6cqund+81xMz5wjTUmzQUYG5bJ9je39wq91t9wm1H5qUqU/hGbecDTEaVNAN38Ke7+lcyrkrqsfa0vi06l1V/YOe7GYI83qm6L178n9pt3JdV3Ih3jq/WpZk+PlPy/bKR8vdjD170zoh5H4odz+Ur7qUpTdqDvV5KVOz+DQ/U7cYh5JnxahxNoL4yryrxKrdfEiGJGGj9xclJ+yRSTXDoXxX6WYpnxRpVGaVDqUbvuS1jQ2FoThdcp1bjGnPqVZ/WvgYj+aUhpPE0IbYVueLZs/m2yJ99STyOrpp8pUXT73Ez/UjTeJtUcQNz2PYtS0PXbk7yg+56Wqcl0tp+6+Bm8+SerTW2alUOoG1eG9rvdw9TuKDt2pySfbVU+rUzefBPVr2opxz8iCn1xjcklJcnRvijWVcarA7Ta88la9hdxfdi53qpcTcfSuHl5GNysWrMTGYSZw9js6vqORia7YyLzu2rNmLtqXNOSafH3D4HUdLt03KTWMeL0VvMxOXk+owm5px7E+Pun6KXio6/FU1cl1Kj8paea38m0bru5C1C3CUupQs2lV04eovIdrzh59mMw6J35p8GvSctTtpUeTdrTh6TUSTDes6dyHhh3cI9Ur11dX1zf1DnMfua258Hm/0Xnc+7dKV5rlSpMumVZ4GVCvVbapxfLs/+AMtn2Rcu2cPVXKNId1H1nzq6iY8mLeb13TrTji2o/NViPvW6/VPn9VOd+v8JZ6SP2y8Z3rj5eTubPuRtNrvGvVTa4f/AAPoR5Q6zLo3p2audmfvP0EyZRasZFvJhW3Lqi1JxafKpqCZ8Hq2JkK9nZ03FJ28NRfmcnT6h87rPKsfVdt02ysf2jxA0uzFdSnn2Y0q1zuJcz6Gz/I8+5/M/QYrsAAPhLx20xYHinuG0o9Ku5byEuX+kRVz+MdK+Tzz/M0NqsVxbf7BWndTh1W+lTyHCcfW9R9LXTRJUgZJdfjcbU4+Zlv5OU+bYd1S6lt7P+fYtRk/3skn/dHy+3+E7leFnq3f5onjDZrmqaRidEMvMs2Ljin0XJxjKj7aNnq0y1Ept7g28+K1PF929BftsumRyLGsaJfuRtWM/Hu3ZukYQuwk2/IqMmmVRf1jQrUpW7uoYtu5F0lCV62pJrhRpuo0ymVbet6A+WpYv8tb+yGmRnxtQ0rJm44+bYvSScmrd2EqJc3wfYMSqHq+gR56liL037fwjTIyQ1nQ3xjqGK15r1v4Rpk8HJt52m3bU7lvKsTt2qd5ONyDjGvBdTT4e6NMmYYvpTQ18bPxV/jrfwjTJ4LrO0iSrHNx2vKrtt/VJpkyywngys9/7RadmvSrnXHp6vJWtKiIPA9r0utHl2PN9sh8JrEjNGeA6NZFn09cfhGEZHbxulTdyHRP4kqqjpzoRWOTwm3HvbdfJ1RGJPBRwxocawVe2qJhWfWbKvbA1i2qNRXWqeRdL+ofA6mdPX7c8Xa/jtS1rZjt3Nv4jlSigo1f7nh9Q/QXjxeevk712rCdaR8laIz4teCs8Ww2/UjJrzJjxFXjWnwcE6cEqICnsNhce7iv4KCLrT8aXF2IcfLFfAXxXC8sGxNLrsxmoqiTinRBMKfROAn/AKNa9HRH4AYhD0fTq19ks1/eR+AviYha7pWDdad3Ht3GlROUIvguziiGIU+hdK5ex2fR3cPgGVwLQdI5+w2K/wCCh8BMyYRk6Ppt+fXexLN2SVOqduMnRclxRcymGN7d0Rrjp+P6O6h8BcyYRHbGg9mnY68/dQ+AZkxC+Vt7SMm67uThWb1x0TnOCb4cuZMyYcee09u146dj081uK+oTVK4gt7R23Wv0bj/ycWNUmIbGrKltbcFqnB4s2vrJfAfne5+HU7M/V6KfyWaxtTAwszamnRzMeGRCNqNFcipJNKlVU/R2nEvNWHKe19vN8NNx3/iofATVK4hC2ht989Mx/wCTj8BdUmGSW3dIeNHFlhWnjRl1xs9C6VJ9tPKTMmIYJbR212abj/WIuqTTDG9m7cb4adYr+8Q1SYZJbY0f2RYbxLfsvV3ispUj1UpWiJqkxDjx2XtqtHp9r3mXVJphWWyNsV/3fbr5OPwk1SaYZltjQ1hTwViQWLOfeStKqTklSvMapNLjfkJtVrhp9v35fCXXJpQ9hbV/4fD66f2RNcmmGextLQrGHfw7WKoY2S071tSlSTjy7ajVJhxHsDaj/wBRj7k5/ZF1yaReHu1P9ir/AA7n2Q1yaXKwtnaBh2cmzj43Ray49F+PXJ9UV2cXwJN5XS4j8NtpyfDEcfRcn8JdcmlK8MdpPh7LP+Un8I1ymly9L2VoWi3rmVgW5wuzg4S6puS6XR8n6CWtMwsQ7Dc1Xt/Zr7faIf8AyJI/Ods//wBm7/r1eje/kh12q7D0HV8uWZmQuO/NJOUZ0Xqqi4H6SLzEPNhwJ+Fm2EnRXvr18A1yaGNeFO2Jf3/69fYl5kml2Gq+H+i6p3HtLur2e3Gzb6ZJerHl2MkXmDS6/wDNNtv++ZH18fsS65NKj8JNudt3I+uj9iOZJpc7O2DpOXpmHp1y5djj4SkrTTXU+ry8CRecml1r8JdDa9W/fXpcfsS8yTQxPwk0V88i/wC44/AOYaXYx8P9OhoctHV653ErvfOfDqrSlOQ1znJpdY/CPSqerl3l6VF/ULzE0qPwh011/wA8u/WxHMXS7DS9gYmn4WdiW8ic45sVCUpJVjSvL3yTuZNLq34R4fyc2a8tYJ/VReYaVZeEOO+WfJf4v/tDmJpdjt/w5t6Nne1xzHdk4Sh0uFF63bzYm+YNLrbvhFGVyU/pD4zb+515/wAIvMNMsMvCCXydQXu2/wCyOYaZZMDwsuYWbYy3nKasTU+ju2q9Lrz6hzCau5sOSx9yyToowtQ99f2T5fVf93bh0r5S1vTdU1jTISjjWF6/O5RNtPztH2tMS8UWw6vWL+q6lkxvX7LndVIpqKrSvmLWsRJNsuVuK9iPWbyuwnchBRguhpfFio8eD8hvcjLnseEOkurBc5NWpxj8ldXH9o5aJejW49uw8jMtY2NFu5fnG3CMmubdFx4Gqwza3hl65p2iazp+FDDnkYacFxt3LsHR8+KqLbWXGm/iHLWFqajxlpsn/hIpfsmeS18hCwtTafTDTa/4WBOSvyIdTquh67lWnac8GzabXeO3dhy/+Bqu1hJ6iMO6tapYyrWRY0+/bnkWrkUlKSimowUapv0HyesnRvRaf5cO3Sx+zHqwSxdUdyU3gYt3q5yc4NuvuM383b4y7aJQsPPf/tGG/RK39iT5u1xNMuNk4GqXHSOjY0X2S6oVX9qi/N2vuNE8HUPDztJw9UytQULV3JUIWYKSbdHXs9Jyvu13b1ivjhqImM5T4JYss7xR0FOjpm2rsqptNQmpNe6kfZrGKvHPjaH3mYdwAB8d/pU6Z7N4lzyqU9vw8e/Xy9FbP/hHSnk4X/meOKnRRt18nYUdxZzcfuoKeXcjPpSkqJxXoXQyK4OKl1ziuKq6PzFnycrO/wBbpd2VpOQ+eNcuWn7jqv7k+T03h1F44xEvTf8AlrLrvFCxhP6JzLMm7t/Gpdj8ldPJ+l1PfVfVoRtp2u1rtu3uLTZ3puFlZNrvJLsj1qo9Fh2fiRp2Pp+8NQx7E3OHWptyVKO4lNr+2JXyYq1jkVpunhJbs5G77WJfm4wyLN63GK+VJwdEZv5Lhq2rY1vG1PKx7U3ct2rs4QuNU6oxk0pU7Kmmaz4OJVphW/8Ahtj42fpG5cPJvO0nhq7VRcqRtNuU6fueBm8z4Ex4NBafU0aIFJp8GB6DpNmzmeEer9d1q7h5sLyVK/GjCKX8LiZmf3JPk8+4mlTC7OLqmxkeh7ixrOR4S7ez1fTvY2Rfsyt04vvJSlStfk9Kfumc/ulJjyed8aVqaVe3enGVU2Mj6V0PEd3wun0y7xZGmdUZL50bTTXuNUPzPdf29TtW/ueisZ27R9HmeVgLK8Lp3+8UFiZDcer5TU5R6V5/WP0X9TyR5Q80cp1bq/SdG14ZN+PBTlTyVYyYb7qmJ3vhXpWoRyYq7ZyLsZwq+p9c2qelUr6DOf3JLQe/yFx7yVfLVmlZ7WpZsVRX508nUwmG8butZlvYu3M+3lUcoyhcUJtSbnWS5U+Ko0fnMxPjI0ValqKdfabtfL1y+E0rkQ1vVUqPMvUXL7ZL4Qkw3fxAuanjbf23m2c2UO+xIwu91cmpOahGVXSlefFmKz4yrRY65rMXVZ+Qn5rs/hN4HIhuTW+Fc/Ifpuz+EYhG6eJV/XNPxtCybGoXbVrKwramrN6ca3YpOTkk1X4y4mK4VpMN0bkhy1TKX+OufCa8Bybe8dx1X/qWS2/Len8JcQmG6+K+TuTRcvSJ2c+9YtZeFblKNq7JJ3Y/dKqL/dLiYrhWjw3nuqPD6UyWvPckzWIHIhvbcqf+8cht/wDeSGITxfRuJiXre2NQ75VuXcBSk3xq+7bZ+V7z4b21P9z2bX8svLtVuapZ8LcXNwL88edi5HvblqTtvocpR7KdrR+mjGp5PR5zHeG6Vx+lcv8Alp/CdMQOTHfG6Omj1TJ/lJfCMQni3CGrblu+GVzV4Zl32i3mNPI6/X7pJR5vj8d8jPhqVpUd77sTr9KZH17LiFZvy73XT/ed764umEbbh65ue74dZer+03Hk2sqkchuPUrVIp8/3TMTEZMtRjv8A3fF/7yuP0qL/AG0a0wrK/EHdj4vUJ1/ew+xLphG06VuDdGXsXU9U7+c8nHvJWr6jDhBKLnwpThUxMRky1WHiJu+P+vt+mFt/txNaYVl/OPu3n7bV/wCDt/YjRCZls+3t0bo1Da2t587ruX8RQ9muRtw4U9a5wSo6R4upmaxmDLV4+JW7lzy4v02rf2JrRCs0fE7dS4+0Qb89q39iNEJmWz7Q3bubVtN1rIuNXLmFj9eM4Wo0VyjdOC48jFqwuZayvFTdq4O7adO3uo/Ab0QZZl4rboS+6Wn6ba+oNEJmWx7D3nr2vankY2a4SsW7LuVhDppJNJVa9Jz3KxENRPi3jclpy0PZzjyV+L9+xI/Mdrn/APs3v9er0738kNG3r4ga9oWu3MDGtWXYjCEoO5CTl6yq6NSVT9RSkTDy5dLHxe3C161rGfm6JfZGuXBqlH54NwdSpjY3o6Z/ZjlwZlse8fEDWdDvYduzjWZLIx4XbjuxnwlLmlSUeRmtIkzLorfjDrNPWxcdv0T+zNcuE1SiXjHrNeGHjU9E1/GHLhcy77W/EDUNP0PStQhjWpTz4OdyEuqkaU5UZmKRmTU6e34xZ7XHAs17fWl8JrlQapVfjHmqXHT7T/hSXwk5cGZd7PxBvratvXXhw653nZ7nqdKKvGpIpGcGp1EPGC7JcdPgn/hH9ia5cJqlD8YpJ8dNjL0XWv4rJyoXVLuNK8QXnaJqGqSwuj2Hp+1KderqdOfTwMzt+K6nWQ8XrUl/u1r/ABv/AGTXKTUmXjDjR4fRsm/8Kl/FHKNTttt+IVjWsjItRwpWe4syvSk5qSaj2ckZmmDU67872n9TT0+4qcPuif1DXKNRPxd0xc8G6/4UfgJyiLOTpXiZgapn2sG3h3Lc776YzcotLhXsJO3gmzk2LF+9gbkVmLnO5fs2oxXNyoqL+2Pl9VeI3qZ+rpWPCXTQ2TuhpR6Ix/cO9Cq8zXUev8ps/X2ceRZybGzd04mTZyIWY9VqcZpO7CjcXXyivddn6+yW6a2G1PQNGypvIztHvu9cfVcVvKtdPV204o6flNnj+jhHTXhSe0tqzf8AubKjx4f51a+yZPyezx/ST4+4wfkht7Hu28nF0bIeTZkp2nPJtdPUuKrRj8psx6/oT025MYa/qO1N1Z2bfy54qrdk5dKuQoq/wiT3fZ4uteltEOveyd01/wBH/wDzIfZD8rtcWvjyW9lbpq64rf8AjIfZCe67XFI6e3BjnszdKbriy+vj9ka/KbXE+PPBjWzdzx4rEl6VKNf2yT3DZnzlY2bQmG091OX+i3KdvFfCZ+bscYXl3RPa+6oyaWLep5nX9piOs2OMHLupc29umKVMXITXOlWWOq2J9YNF3Xahp+tY8FLNs3YR5J3E6fsnba3Nu0/tmGbRb1b9+jhjzveKujKLa6ZXbj6acoW5Sda14cOJ6reTjH8z7hOb0AAD5u/S90JNaJrka9Uo3cGfkSVbsf7qR023De84fNVCoUCs+G/tjXoLHk53bvtrTcPWNs5WBl3OiFm/KalSvSnFPkfnus3rbO/FqxnMPbtUi9McHU7i29hafl4Mc+9LN01wbhNKUHFJ9Mo08zR7uj6rmxPhi0Oe5XTbDS9S0nG9svPEvwnjOTdmlaqLfCLqlxoezJEts2LpHh7bxrt3dOTJZLnCWMrEppxSrXqoqc6dpJmfRqJhte6o+EeuXcvUPbbsNTvW6WpPqVtTjDpg2lFvsVSRMwk4eRXtIdu7KLuxnFNpXIV6ZLyqtHT3DWTL1PYOD4X6RZ0/UtQ1Jx17Hcrlx25ydqtX0qjh818TNpmfBqJhxd4bf8NMnAycrQ9Vpq1653ihfnS3SUqzSpD3uIrafViYiPJ5xjaHdvXoW+uMOtpdU3SMa9smuw1lcvbtp6B4V6PjXJLV5PLzsJ4mbB3Yygu9iu86fUXJ8jEzMteDSt+bK2XiYFq9tfVFmXVKXtVq7dhKXTRdPdqMYt8TUWn1Ylp+i7djmapj4t+9bs2ZzXfXLk1aUYJ+t60uFaci5aiXtunbQ8MMPRNS0jH19SxtU7vvnK9acou1JyTjSKXvnObT5tTEYw8y39sfRdLyLD2/qNvUMKUPtsu+tTuK5V/JtqL6aeY3FuLHk6zaG0cXVNas4+pZNvF09VeTfd23bcV0unT3nP1qcEJsseL2F7C8Pp7Wht/8ooPFhkvMhed6y5qTh0dPkp2mNc5y1MQ8j3zszF0bWZ2dMzLebpkqezZMbtq5J+qnLrjbfq0bfNG4tljOHK8P9g4O4NTlY1HMWJi9DULsJ2+8lequiEYTfU68eSMbm7FIzLdYy9v2xpGp6dp2Rt6762kY1mVjAv3OlXJ945OTlGNaJdR+S7v1+3uTSaTnE5eva25xMS831Pa25tH2xf0rULS+h7l9TnkQcW41kmn76P0PT9x2d62Kz+7g8Vtu1Y8Wobr2Xb0/2W5p9+OVh3oJyvpxTjcdfUcU2+CXM98WTyYtm7Fu69rVrDvXPZsRccrK9Vq3GjadJONatUE2w1Hi9ll4QaVPZ8Nu29bhKMcx5cclwi+Dh09HSpr08znzPHLU18Hj299hZegatLEty9oxOlOzl0UI3HROVEpS5VpzOsWzDHkvsjw7ytyao8adx4uLCMncy+nrhGSVYxfGPMza2Fjxet5vgxbzdraXoi1e2np1y7N3nbr1K7LqS6VPhT0mI3PFZo8X3bsvP0PWr+nuErlq1Jqzf6eiN2KpWUat+XynWLZhjOHO2L4b5u6My9Zc3iWLVuUlkzg5W3OLiuiq4VpKpm1sNRGXq2t+CF7UNA0bTlqVqFzTIXIXbri6T65KUaJPhRcDEbizSXiW4tp6lo+rZOFeszUbFyUI3HFxU4xbj1xrzjKnA65Yy7vYXhbqm7Z5CtXY4dqxFNXr0ZdEm3Rxi4p8USbYaiJl6purwP1XWNM0PFs5uPG7peJHHvTfVSco0VVwqYjciMrNZeEatt3UNN1LJw71qSljXJ25S6Wk1FtdSr2OnA65Zy77ZPhhrW7Xk+x3LeNHGUZOeQpxjLqbVIuMZVpTiZm0QsRMvUd7eDOva7a0buszGjPT8C1iX3clOkrlutZRai+HpMRuQs0l4TmaTlY2VesTtyTtTcHwfY6HTLOXfbT8OtZ3LYzL2FO1bhhdHeO+5Qr3nVTppGVfiMza8V81iJl7ttLVs/VdGzNNu4dy08LBhixvyUum9cVtwfR1KPkPyve92mvbmJj+Z69mJmsvO5WM7L2hY2hkY7xczv6rIuqSh8eTSbSfzj9LTcrM5icvHPBou7Nlaht7UY4N+l2bhGbuWupwalxVG0jvExMHk4eg7Xz9a1WxpuLSN2+2lO4nGCpFy4tJ+QTOFh6vi+GW4LGw8rb87tiWVezI34SjOXQrfQk030+VeQ58yM5Way8u3PtHUdA1H2DJSleUVNu3WUaS5caI6RaJZzhxNH0DO1XU7Gn4y+3324w6vVXBOTq35kJnBl6jgeH247GyM7RJuPtN/JjctxVz1e7oqqvLmqnPXGcriXm24dq6jombHDyrf25wVykH1rpdUuK9B0icp5OJpuiZ2o6hYwMeHVkZEui3FtKr9Lohky9T0nw+3Zh7K1XSblvpycq7CVi3G5Gjg6KfGtFyMTaMriXm24tq6poOTbxs+33d6ce8UaqXqttJ1i32o3E5TLr8HTcrNzLOJjx67+RONu1GqVZSdEqsuTL1bbOwt3aftbXcC9jyt38uMPZYRnB9XVWNzk6L1TnNozC4l5xuDaWs6DctW9RsOxO8nK2m06pOleDZuJiUy63Hw7+RkWse1Hqu3pxt24rtlJ0S99lXL1zYexN46Vpe4LGTiXLFzJxUsSNYvqu0kqKj50ZztaJwuJeb7h2fr2gKy9UxpYzyOru1KnHppXk/OjeYnyR08bM5SUVxcmkl6SmXoWzcHVNo6pkXNcx7mHYyMdxiriS6pVTjSpyvOYInxelbjvd3trZ+S19ot3ITuy8kXYdH+yfl+2T/AP173+vV693+SHnO/tB1vXtYvaphY13I02xaio5ELcnCMIx6pVklTg2z9VSYw8ky84lakm15DeTLs9H21uDU7csjTMC/lwszSlOzblNKS40rFMZSZemeMG1Nx5ebpns2FkZFq1hQncnC1JqNyfGabS4GKYwsvIZ2bsJuMk04ujXoNmXI0/R9T1BzWFjXMh26datxcqV5Vp6AZel760fXb20NtWHizc3YVy7BW5dUZKKjSXkMVxmT0eXX8a9ZvStXIuM4OkovsaN5MpxcLKyrjt49uV2aVemKbdPcBl6Nl4uq/mrwsd4zjK5kSt0cGpUhJv36mMfuM+DzjIxMixddu5Bxnzo0dDKlu1cuTUIRcpvlFcyGXpG08bOt+G+vTeOqQuKHrx4vvFFfsdhmY8YSJedX8W/ZlScXFvzG1yxKEnJJKrfYQek+DuLNXddlcsp9zgyvVnGten5PolUzfyI83n2ZYvQuznKDgpSdPJzNyZcajJkbLsLpsbnxpX7a6aTpKfBRfS/WM38kewbGVu9HUb0aShc1FJNdvRbXwH5fvFv3x/8Ao9exDyneuqajZ126rGTdtRbckoTlFes2+xn3+lpEbcfwcLz4uk+n9ea6fpDIa8nezf1TvorwYyflJr64LUchei7NfVHLrwXLlR1/XXpkpvPvuXe0Uu8l2R5c/OOXXgmZywR3PuNctRyP5SXwjl14QZZPyv3RFdP0nkU/wkvhJyqcIXMuVpm7NyzvyUtRvyUbdyXGbfFRbX7I5NOEE2lhjvTdUZcNSv8A17E7NOEGqVpb43W1R6jda9KJyacINUqR3ruhOiz7nH0fAXk04QapcrN3pua1mTjDMlHodKJR+AnIpwgi0sU9+brlxedL62PwE+Pt8IXVJ+X27KUWdKn72HwD4239sGqeLZdM1XUNS2bn5GoXXfn3qjCUklT3jx7m3Wu9XTGDMzEt8/RVxHd8SbV/oTWPjX5dTr6vVBw4ef1j69vJ5a/zPsc5u4AA8c/Smwe/8O7GRSvs2dab83XCcfqnTb83Hf8AKHyVj4GNOxCc8uEJNUcGuKpw8pplgWBamuqcm3Wqo2l+wy6WJvKsLcbOoKFttwlBuj8qoXCZzDlabuDUtEzJ3Mdrou/HhNVjKh4+q6Su7Hi77O5NY8G0LxDWUrdrLx8S9bUoJK5FtJSjWbVX2M+VHa9OZrNoeid7PnDDHd2jSUZT0nAbcYuS6O1y6ZLn7puehv8AfZOZHCGdbo0Lof8A6PgtqM3RJrjGdF29seJn4W7/AJLHMrwhn/KHb0uqL0XEcU7qTq+PRDqj9c+Bn4W9/ksvMrwI6zth3Ixeh41JStRcut8Fch1N/wAF8B8Xfj/yWOZTgqtY2rKEZz0KzVwjNpXZVXVNwa5dnMvxuo/yT7GunAnqGznGXVoUOCuNxV6XO3JKlUu1OpI2Op/yfoaqcFvaNkObgtD4KU49Svz49MOtPj87kOV1X+T9DO3wLd7Y0pwj9DTTnKzFNXpffo1r7nITTqo/r/Qzt8ESv7ElZjcuaRdS7rvEledad73dOFPSJp1X3x7GdvgvOOwV1J6Ve9R3o/da/cEm+flT4EiOr++PZf8Ab4Lxs7BlJRjp2Qm5QgmriX3SHXH9qhM9X91fYnlsMcbw9uUm8TMipRhLhcjyuS6f2Gamerj1r7Jjb+q0sXw9in1YuYulTbXVbb+1y6X8JNXWca+x/t/Ve5geH3X3fc5saScKqUOcYdf7K5E5nWY86Gnb+rF9DeHU+lv6Q9fuvlW/vvL9riOZ1n9n6rp2/q5OlWPD/TcuzqdlZ072MnftxuOLVYT6OKVONeJy346vcrNJ0YnwapNKznxdzkeI+habkT9kxr1y91dFzqpGHTXjTi/Jw4Hkr2be3a/umIh0nqa1nwZXufZ2oaZex70Mh4+ZFwuQdG07Me84Vk/cJHQ9Vt7kWjTmv/2W3KWrhrdrbnh51J2czNt1dtL1Y8HeVYdnvn0Z6nq/tp/+HHRTjKI7e8Ppp3fpHMXqO424KvTGXS+XnL8nq/sr7minGVp7X2HKTtrU8qLUpwdbdV1Qj1P9gfM6r7K+5y6cVI7U2NKnTrGRVu21W1L778XmPmdV/jr7nLrxWjtjZirJ65eVFKTfczTpB9MuT8o+b1P+OPc5dfuZPyV2q7vRHXrql1dFHauP1qdXzvIPndRj/tx7nLr9zHPaW0ZxTe4JOsYyTlZuPhN9KfPyj53Uf4v1OVX7l7W0Ns2HLu9xzt0dyqjaux42l6/J9gjr9/8AxfqcqPuZXtbSZ3FCG6ZxlKUIxXRd+NcXVBfGXND8jvf4v1OVH3ONf2hoN5K5d3Mri6O8Up27svU6+ivF/O4F/Ib3+KfeE5Ufc5GNtPAw07VjdfcpSnHu4QuRSlbXVPlLsRPyW7/in3Xlf3My0CbolvSSr0Uf25fdFWHyl8Yfktz/ABT7nK/ucPK2ZgZM3dyd0270nF+vdV2T6YOj4tvky/ktz/Fb3OT/AHOTi7SjiRVjF3d3KclBWrcrkI9U11JUi+b5mfyd/wDFY5X9y62/k9HU97Pu+nrr31ynS5dNeL5dXAv5O+ccqy8r+5wszw/hlXpPJ3Pj3rtZRlK65OVbarJVfzUI7rb/ABWSdn6w7bam27Wh6ljZFzc9q9h4/rRw4S9STuRfRwrTm6o8nW9dubu3NI27RMuu3t6ZzMtr/LDR9PuOOVrFu/K61bhGCT6JdspdPJek+PPbtzdj9u3MY/V6ObWPOWHU54WsaJfxJa3jzldpLHv1jFwlafVJ1T+a+J26e19ndi0bdox5sbkRauMtMzdk61nQhav7jxsq1Bx6I3MmUqOa9WlU+MlyPu/l6/Zf2eXk24wpp2xda05znga9iYzuKsnayKVUfLw7Klnu1Psv7EbNuMOfHbW9U/V3La4tL/SXzfFJcO0z+W2vsv7Lyr8YcHUNkbt1GCWXreNkQXrRcr8Xw+LWvT7hqO77cf039k5Nvoppvh7uvTLk54WqYtm7NpScbsG+HZ60fOJ7xtT5xb2I2bRwdlDb/iJH1nrdiXavttvl9aT8tscLey8q/wBHB1HY2+NSosvOsX+ltpudqqovNFPtLHeNiPS3sk7N54MOn+H+9dMyHkYGTjQvNJOfVZk1511p09w1PeNj+72lI2bu8t6X4qR+NqNuS49tmv7RPy/T/X2a5W46/V9neIGrRXttyxfa5OXcKSXH5UUn2iO8dPxn2lJ2buBpfhxvfTcxZWJDHV5fFnPuZ0adarrrR8OaLPeen4z7SRs34Nljj+L0Uq37MvPSzUn5fpuM+y8vc4Os1rbPiTrVtW9Rs49/p4Rn02VNLnwlF1LHd+mj+r9JSdq8+jqNM8Od76dnRzMbCsSvQ4x77uriTqmpJSfBqnM1+X6f7v8AqnJvwbd7V4yxVFGzxXPptrj75j8r033NaNzg6fcOi+J+v4ys6ngY+Qrde6n02uuNaV6ZdXCtDUd26aP6knbvPo1zE8Nt7YeVDItaTbvShX1LytzhWnanI1+W6f70javwenaXperZWl2r+49OxszVnckpRuKLVu0qKKjx6anweu7hF9z9l5imPTi9e3t+HjHi7zKuwycC1ixxMfKlbcVfxZOLhb4dir7x8raiaXm2q1c+U8XacTGGv7gsbrwbStbd0/HlgZlnpzsPnFTkmpqPFcGj9B23udMTG7fxifCZ4PLu7cx/LDzLM8PdzXLk2tHlb6m2oW4+qq8aLiz68dy2Pvh5p27cG27T1Df+1tOeBpm37UbcpKd2Uo3W5zUUnN+tzdOws9dsT/XCxW0ejup+IfinKEo3NAtOMlSSULq83AfL6f74X93B5fquz9czMqd+1t+5ixuOrtwhelFPtdZqUv2Tp83Z++vuxptwlsmyM3dW0LV2OBtpzvZFPaLs1erNQbceFKKnV2IT1OzP9ce6xFo9G2/nR34orq21Gr58Lq/imeds/dDeqeDzbcGiarqmo38+Ogzxp5MpXL0V3k05ydW6yjwOsdRt/dDnMTwdhsSerbVybuZZ0Cd/LuRdt3XKUV3badOnppzjzFt/bnw1QRmPRvVvxa3BFuNzbvDt9d/tdBnVT7ob1zwecb1t3txarc1T6Gu42Tep3yUnKLaSSoumNOR0ru1iMaoYtOfRTZmJ+TmuQ1a7pF7Nu47bx0pKEFWLjLqUlKvCXAs7tZjzhHpsfGO+ouP5MSinzipxo/c6TP7fua1/RoPiHqmLurJs5f0Nfw8mzFW0oyg4ONW+SSdePlN1tEesJNstX0TR7GJq+Nl5mBfv2LE43Vag4rqlCSklLq6vV4cS644s5euY3inh2ZuNnbUrfeLpn0u2k1Tk6I5Yji6xb6NY8Qdb0XceBatQ0ieFfsOUoysxhFSbpwn6qbpTym6zj1S0vN4aLbjfg71i9KxX1+hLqS81Tepzy9L0fTtG3Tandv4lzS9P063C0nZhGN27NqlXJLzcT5XX9dbZmIri1rO+3txZuOg6RpGjafZxtNdyVmV6dyUrz9eUu7lV/sH53qN3c3bzN8Zx6fxeqlYrHg8U3TpeVk6n31u3KUHbg6pN/JXkP2Wz4Vh4b+bq1t3KlGsaJ8ulyhF188XJNHXLLhZej5ti50u03wr6tJf3NS5XLnY+l5NzQU1baayJ1qqOihEZRjs6Dk3m424Pqj8bl9VkyMeXoOdYtqc7b6W6dnwjK5X0TAuzyMldLrHHm17tF9UuUljtaPkXJxtqDdybpGirX3gZZMjbupW4SlKxOkVV1i0Mq4FvEu99bi4tOUkvfZSZc3U8C99IZFYtUm2/Q2RB7e1Lpi4491qSqvtcuK94ZVwb+Fk2JyhetyhJc4yTTQG7aXDufD2T7bt9v3qo8N/HqI/g1H8svXP0RMSM93anfcXWzgvplThxuQVPdqfUv5PNt/zPq45u4AA1fxK2jPdu0MzRLcowu33CVuc3RKUJJ15M1WcSxeuqMPnO/wDonb9lck4Zen0rwl316NfcVpnTXDlG3ZR/opeJMY9MMzT6Ll9vufVsjXBypVt/opeI0Ljuu9p87rVOqWRcbp5F9qGuDl2Zbn6LfiRcVJz0ySXY70/5ok3hI2rMf6qniF//ABf8rL+aJqheXZhufot+IkJtRxcC6vnxvxp/bRi/2C6oTl3Ul+i/4j/7Bgv/AMxD4Bqg5dlf1YPExcsDC/CYL6g1QvLsj9WHxP8A9hw16MqPwDVBy7H6sHif/sWJ+Fx+AaqnLsn9WHxO/wBjxfwuI1VOXYl+jH4nKLfseM2k6RWXGr83FomanLs46/Rs8VP+EQ/DLH86XNTRZK/Rs8Vf+Ex9Httj+dJmposP9GzxWf8A7ZH8Msdv+MH7TRZb9W3xX7NNiu3/AEyx2f4wftNF0r9G3xXS/wB3xX/nLHZx+eP2mi5+rd4sPngR41/1yx28/lk/amm6t79HXxet0cNMd1t1fRmYlVwpx67kRippux/q9+MXL6HupUX+u4PZy+/dgxU03F+jz4wpU+h7lKNU9swaUbq/voxQ03Vl+jt4vSk5S0acpPm3l4L/APFNRpg034Lx/R88Y4xShpE4pNtJZeDwqqP795DMxWTTdZfo/wDjKuWkzXxf9bwfkfF+/dnYTTRcXQv0ffGRJr6IlRpxp7Xg8m6tfdvKNNDF2Kfgb4xRuOuj3nJSbbV3GfFqjaauU5DRRP3q/mO8YOFNGvqiil9sx/kfF++dg5dF/fwPzH+MHH/0W86qSfr4/wAvjL752k5dD9/Bb8yfjH1q59D3utSU0+vH5xXSn908g5VDN+CPzIeMDio/Qt2iioL1sf4ql1JfdPKOXQzfgs/BPxibblot1tu4362PzvKk/vvahyqGb8ES8GPGK39tlot5uErc109xJ1tLpg6K43wROVQzfg4z8IPFpwUPoHK6FDu0u7j8Tr66fG+dxLyqGq/BeXhL4uuTl9BZPVKU5t93Hncj0y+V2onJoar8D80ni5RL6ByeHdpfa4/evi/K7ByaGq/BEvCPxcao9ByWqTX3OPK46y+UOTQ1X4Lfmn8XlJTWgZPUpwuJ9EfjW49MfleQnIouq/BX80fi07Stvb2T0q33KXQvi9fefO+cXk0NV+CMjwy8WYXaz27luUpXLjcbMpqt6KjPjGq7ORORQ124ML8NfFbh/wD1vN9VW0v83u/evi9g5FDXbg493wn8TrlydyW287qnJyl9ouLi+PzTpWlYjDMzbg5GP4aeKli3GEdtZrjFXUq2Lv36ChL5PkXA522K2nLUXtHotHw58VotNbYzeDsy+4XedhUh8n3yfHr/ANf1XmW4I/Nv4qqHQtsZrXRch9wu8rjq+z3ifHrx/wBQcy3Bkj4feK0XGS2vmtxuWrv3G7zsxcF8ntT4knpqrzLcHC/IjxO7nufyU1PpVp2U/Y8qtHd73+9eUvxq5ynMtwlmez/E53O8e1NU6u9d7/Q8rm49NPuZn4tV5tuEsUtkeJjs93+Suq07pWa+x5NaRuddfuZfjVznKc23CWV7R8TXdld/JPVlKVy9dosPJ5349LX3PsM/ErjC823CVVs3xN6aLamrr1LcP9DyfvTqn8TtL8WpzbcJX/JLxNVyU1tLV/Wlfk0sTI/1iHS/kfJJ8Sv/AE/RebbhKl3bHiPYh1Xdr6tbjWwk5Yt+KrZXBcYdpPiV+nr+pzp+rEtF39Sj29qf377xe+/Knzfkj4df+n6HOleOlb+TT/J3VKqWPL7he/1eLj835Rn4Vfp6/qvPk+h9/d3GL2/qtVC7CvcXuPeuqfxfkl+FX6en6HOlkhpu/ldjc/J/VeFyxcp3F77zHpa+L8onwafT1/U58qx0vf6h0/QOrV7u5br3F7nOTkn8XsJ8Gv09Dnyyxwd/xuKT0LV3HvbNyncX+VqLjJfF+UZ/H0+nqvPlxpWt72Ydzd0zU4XI2p22navJ1nLrUmqeQv4+nCDnyplflndtXIwwNThKbttS7u9wUIOL7O3mWnQUifGISd+XAw9N3fjZUb0dP1GL6k7jjZvJyo+3gejc6alq4xDMbsxLt/a96xS/zLVed58LV/75GkOz5LPF+M2+Eejp8iVlqG+Ojhi6spUspNWb/wB7VJvl8ok9r2/tr6nyJZFq291PqWLq1Oq+6OxfpS5Gltcvksz+J2/tr6L8mSWt72hbk5WdViowtVk7F+icPuj5dpPxO39tfVfkyqt3bnUm3LPUeu9JfarnxZwpbXL5MjM9n2/tj0PlShbw3X3bSnmqfd24pu1c+On67+L2on4faz/LB8mWZb23KrzfXl9He3ZdLsz+I4/a18XskYns23j+WPJr5UqPe26lba7zJ63aik+5f3TqTk/i/NL+G2s/y+qfJlm/LrcqucLl/u++k1Ww/uXSulcY+Ux+E28fy+jXypR+Xe6e54TuO4rPN2PvvX+9+YX8LtZ8vXinyZXueIus2L676/3dqV71eu0o1tJcecfKZ/CUx5enFflSwfnO1buvWzLfX3UnxhH7p1+r2fNL+F2+E+58pm/Ofndf+lWujvbS+IvudPtj5eUx+Fpwn3PksS8T9S6I1v2JScLjfqR+Om+j9gfhKfX3PkrrxP1BSa76xRuyk+iPJr7b7zH4Wv8Ad6+q/JXj4oZ9I1uWK1u1pFdi+1++T8NX+709T5Kr8Ts/pfHGb6Lb4wXxpfH7ewfhoz529z5LJ+czMdxp+zOHeXFVwXxIxrB+6yfho429z5LHLxL1BWXKKx1JWlLpUaJzcqU5/NH4Okz46vNflOgyt+a9k5tnKdyMe4bcLUVSHFUdV21R9Db7Rs0rNcebjbqbTLkY288JXa5Oj40oPjPu+qMn6OLJbt14jFb2WN+PWHCs6LtLU71+8o5GM03Ojvw7av1U4HeNveiPOGZvWZX0zM2rpOPct2MC9lXbkqud69KNEuxd3Q5bnTb97fzaY+ixuVhyvyq0SlPoqcV+5y76/akifC3vv/RebXg4uoadtTXs+33F7MxJSjTum+8jwVX6059RvZpv0jFsWS16z5MGJoe0tG1Nyyr+ZlytJ9NqNLS6muD6oy6hux1Fo/bFYK2r6uwe4ttN09gy0uXDNvfCY+P1H3R7LzKuPqL2jqmCrUb2bgXeqrTnLITXZ8aUSUp1NbeOLR7E3phw720NuYjtvK1TJnF8aK2k2vSps7Tfe9Kx7sxNeLs56ttC1JW7eNl3LcKKMu+ceXmOFdnqZjMzX2a10THVtpX7d6245eJKcWoXe8dykvLR/CS2z1MY8aysXo6tbV0KeLLJjq2R3SrWTtef9+ejXu/b+rPhxcnFydm6dhQx+6v59yrd27PpjVvzNSOM06m1vOKw1Fqw67XtexMjBjg4GN7Niwbl0t1bk/cR26fpbRbVecyxfcjGIfQH6IujKODrGr1lWUo4vTVdNKRnWnOvA+huR5OGz5y+iTk9AAAAAAAAAAAAAAAAAAAAAAAAAAAAAAAAAAAAAAAAAAAAAAAAAAAAAAAAAAAAAAAAAAAAAAAAAAAAAAAAAAAAAAAAAAAAAAAceWnafOTnPFsylJtyk7cW23zbdAI+i9N/2Sz/ACcPgAfRmm/7JZ/k4/AA+jNN/wBks/ycfgAn6N07/ZbP8nH4AH0bp3+y2f5OPwAUuaRpV2DhcwrE4PnGVqDTpx5NAww/k3t1ctLxP5C19iEwPbm3nz0vEf8AiLX2IMH5N7d/4Vh/yFr7EGD8m9u/8Lw/5C19iDCXt3b8uemYj9Ni39iDCPyb27/wrD/kLX2IMMN3Z+0r0lK9omBcklRSni2ZOnk4xGTEI/IzZ/T0/QWn9L5x9ksU/uBkwr+Q+y/+Aab+CWPsBkxCHsbZL57f01/+TsfYFyYh2OnaTpWmWpWdOw7GFak+qVvHtQtRb5VagoqoyREQ5RFAAAAAAAAAAAAAAAAAAAAAAAAAAAAAAAAAAAAAAAAAAAAAAAAAAAAAAAAAAAAAAAAAAAAAAAAAAAAAAAAAAAAAAAAAAAAAAAAAAAAAAAAAAAAAAAAAAAAAAAAAAAAAAAAAAAAAAAAAAAAAAAAAAAAAAAAAAAAAAAAAAAAAAAAAAAAAAAAAAAAAAAAAAAAAAAAAAAAAAAAAAAAAAAAAAAAAAAAAAAAAAAAAAAAAAAAAAAAAAAAAAAAAAAAAAAAAAAAAAAAAAAAAAAAAAAAAAAAAAAAAAAAAAAAAAAAAAAAAAAAAAAAAAAAAAAAAAAAAAAAAAAAAAAAAAAAAAAAAAAAAAAAAAAAAAAAAAAAAAAAAAAAAAAAAAAAAAAAAAAAAAAAAAAAAAAAAAAAAAAAAAAAAAAAAAAAAAAAAAAAAAAAAAAAAAAAAAAAAAAAAAAAAAAAAAAAAAAAAAAAAAAAAAAAAAAAAAAAAAAAAAAAAAAAAAAAAAAAAAAAAAAAAAAAAAAAAAAAAAAAAAAAAAAAAAAAAAAAAAAAAAAAAAAAAAAAAAAAAAAAAAAAAAAAAAAAAAAAAAAAAAAAAAAAAAAAAAAAAAAAAAAAAAAAAAAAAAAAAAAAAAAAAAAAAAAAAAAAAAAAAAAAAAAAAAAAAAAAAAAAAAAAAAAAAAAAAAAAAAAAAAAAAAAAAAAAAAAAAAAAAAAAAAAAAAAAAAAAAAAAAAAAAAAAAAAAAAAAAAAAAAAAAAAAAAAAAAAAAAAAAAAAAAAAAAAAAAAAAAAAAAAAAAAAAAAAAAAAAAAAAAAAAAAAAAAAAAAAAAAAAAAAAAAAAAAAAAAAAAAAAAAAAAAAAAAAAAAAAAAAAAAAAAAAAAAAAAAAAAAAAAAAAAAAAAAAAAAAAAAAAAAAAAAAAAAAAAAAAAAAAAAAAAAAAAAAAAAAAAAAAAAAAAAAAAAAAAAAAAAAAAAAAAAAAAAAAAAAAAAAAAAAAAAAAAAAAAAAAAAAAAAAAAAAAAAAAAAAAAAAAAAAAAAAAAAAAAAAAAAAAAAAAAAAAAAAAAAAAAAAAAAAAAAAAAAAAAAAAAAAAAAAAAAAAAAAAAAAAAAAAAAAAAAAAAAAAAAAAAAAAAAAAAAAAAAAAAAAAAAAAAAAAAAAAAAAAAAAAAAAAAAAAAAAAAAAAAAAAAAAAAAAAAAAAAAAAAAAAAAAAAAAAAAAAAAAAAAAAAAAAAAAAAAAAAAAAAAAAAAAAAAAAAAAAAAAAAAAAAAAAAAAAAAAAAAAAAAAAAAAAAAAAAAAAAAAAAAAAAAAAAAAAAAAAAAAAAAAAAAAAAAAAAAAAAAAAAAAAAAAAAAAAAAAAAAAAAAAAAAAAAAAAAAAAAAAAAAAAAAAAAAAAAAAAAAAAAAAAAAAAAAAAAAAAAAAAAAAAAAAAAAAAAAAAAAAAAAAAAAAAAAAAAAAAAAAAAAAAAAAAAAAAAAAAAAAAAAAAAAAAAAAAAAAAAAAAAAAAAAAAAAAAAAAAAAAAAAAAAAAAAAAAAAAAAAAAAAAAAAAAAAAAAAAAAAAAAAAAAAAAAAAAAAAAAAAAAAAAAAAAAAAAAAAAAAAAAAAAAAAAAAAAAAAAAAAAAAAAAAAAAAAAAAAAAAAAAAAAAAAAAAAAAAAAAAAAAAAAAAAAAAAAAAAAAAAAAAAAAAAAAAAAAAAAAAAAAAAAAAAAAAAAAAAAAAAAAAAAAAAAAAAAAAAAAAAAAAAAAAAAAAAAAAAAAAAAAAAAAAAAAAAAAAAAAAAAAAAAAAAAAAAAAAAAAAAAAAAAAAAAAAAAAAAAAAAAAAAAAAAAAAAAAAAAAAAAAAAAAAAAAAAAAAAAAAAAAAAAAAAAAAAAAAAAAAAAAAAAAAAAAAAAAAAAAAAAAAAAAAAAAAAAAAAAAAAAAAAAAAAAAAAAAAAAAAAAAAAAAAAAAAAAAAAAAAAAAAAAAAAAAAAAAAAAAAAAAAAAAAAAAAAAAAAAAAAAAAAAAAAAAAAAAAAAAAAAAAAAAAAAAAAAAAAAAAAAAAAAAAAAAAAAAAAAAAAAAAAAAAAAAAAAAAAAAAAAAAAAAAAAAAAAAAAAAAAAAAAAAAAAAAAAAAAAAAAAAAAAAAAAAAAAAAAAAAAAAAAAAAAAAAAAAAAAAAAAAAAAAAAAAAAAAAAAAAAAAAAAAAAAAAAAAAAAAAAAAAAAAAAAAAAAAAAAAAAAAAAAAAAAAAAAAAAAAAAAAAAAAAAAAAAAAAAAAAAAAAAAAAAAAAAAAAAAAAAAAAAAAAAAAAAAAAAAAAAAAAAAAAAAAAAAAAAAAAAAAAAAAAAAAAAAAAAAAAAAAAAAAAAAAAAAAAAAAAAAAAAAAAAAAAAAAAAAAAAAAAAAAAAAAAAAAAAAAAAAAAAAAAAAAAAAAAAAAAAAAAAAAAAAAAAAAAAAAAAAAAAAAAAAAAAAAAAAAAAAAAAAAAAAAAAAAAAAAAAAAAAAAAAAAAAAAAAAAAAAAAAAAAAAAAAAAAAAAAAAAAAAAAAAAAAAAAAAAAAAAAAAAAAAAAAAAAAAAAAAAAAAAAAAAAAAAAAAAAAAAAAAAAAAAAAAAAAAAAAAAAAAAAAAAAAAAAAAAAAAAAAAAAAAAAAAAAAAAAAAAAAAAAAAAAAAAAAAAAAAAAAAAAAAAAAAAAAAAAAAAAAAAAAAAAAAAAAAAAAAAAAAAAAAAAAAAAAAAAAAAAAAAAAAAAAAAAAAAAAAAAAAAAAAAAAAAAAAAAAAAAAAAAAAAAAAAAAAAAAAAAAAAAAAAAAAAAAAAAAAAAAAAAAAAAAAAAAAAAAAAAAAAAAAAAAAAAAAAAAAAAAAAAAAAAAAAAAAAAAAAAAAAAAAAAAAAAAAAAAAAAAAAAAAAAAAAAAAAAAAAAAAAAAAAAAAAAAAAAAAAAAB/9k=;fontFamily=Georgia;fontSize=30;" vertex="1" parent="1">
          <mxGeometry x="80.5" y="-890" width="120.5" height="90" as="geometry" />
        </mxCell>
        <mxCell id="g3Qe9eYbxrYbmOavFG9u-1" value="Internet" style="ellipse;whiteSpace=wrap;html=1;fontFamily=Georgia;fontSize=44;fontStyle=0" vertex="1" parent="1">
          <mxGeometry x="239" y="-1150" width="350" height="120" as="geometry" />
        </mxCell>
        <mxCell id="g3Qe9eYbxrYbmOavFG9u-6" value="&lt;font style=&quot;font-size: 30px&quot;&gt;Router1&lt;/font&gt;" style="ellipse;whiteSpace=wrap;html=1;fontFamily=Georgia;fontSize=44;" vertex="1" parent="1">
          <mxGeometry x="80" y="-990" width="121" height="80" as="geometry" />
        </mxCell>
        <mxCell id="g3Qe9eYbxrYbmOavFG9u-7" value="&lt;font style=&quot;font-size: 30px&quot;&gt;Router3&lt;/font&gt;" style="ellipse;whiteSpace=wrap;html=1;fontFamily=Georgia;fontSize=44;" vertex="1" parent="1">
          <mxGeometry x="640" y="-990" width="120" height="80" as="geometry" />
        </mxCell>
        <mxCell id="g3Qe9eYbxrYbmOavFG9u-11" value="" style="edgeStyle=orthogonalEdgeStyle;rounded=0;orthogonalLoop=1;jettySize=auto;html=1;fontFamily=Georgia;fontSize=44;" edge="1" parent="1" source="g3Qe9eYbxrYbmOavFG9u-8" target="g3Qe9eYbxrYbmOavFG9u-1">
          <mxGeometry relative="1" as="geometry" />
        </mxCell>
        <mxCell id="g3Qe9eYbxrYbmOavFG9u-8" value="&lt;font style=&quot;font-size: 30px&quot;&gt;Router2&lt;/font&gt;" style="ellipse;whiteSpace=wrap;html=1;fontFamily=Georgia;fontSize=44;" vertex="1" parent="1">
          <mxGeometry x="354" y="-990" width="120" height="80" as="geometry" />
        </mxCell>
        <mxCell id="g3Qe9eYbxrYbmOavFG9u-9" value="" style="endArrow=classic;startArrow=classic;html=1;rounded=0;fontFamily=Georgia;fontSize=44;" edge="1" parent="1" target="g3Qe9eYbxrYbmOavFG9u-1">
          <mxGeometry width="50" height="50" relative="1" as="geometry">
            <mxPoint x="180" y="-980" as="sourcePoint" />
            <mxPoint x="230" y="-1030" as="targetPoint" />
          </mxGeometry>
        </mxCell>
        <mxCell id="g3Qe9eYbxrYbmOavFG9u-10" value="" style="endArrow=classic;startArrow=classic;html=1;rounded=0;fontFamily=Georgia;fontSize=44;entryX=0.5;entryY=1;entryDx=0;entryDy=0;exitX=0.5;exitY=0;exitDx=0;exitDy=0;" edge="1" parent="1" source="g3Qe9eYbxrYbmOavFG9u-8" target="g3Qe9eYbxrYbmOavFG9u-1">
          <mxGeometry width="50" height="50" relative="1" as="geometry">
            <mxPoint x="410" y="-990" as="sourcePoint" />
            <mxPoint x="460" y="-1040" as="targetPoint" />
          </mxGeometry>
        </mxCell>
        <mxCell id="g3Qe9eYbxrYbmOavFG9u-12" value="" style="endArrow=classic;startArrow=classic;html=1;rounded=0;fontFamily=Georgia;fontSize=44;" edge="1" parent="1" target="g3Qe9eYbxrYbmOavFG9u-1">
          <mxGeometry width="50" height="50" relative="1" as="geometry">
            <mxPoint x="640" y="-970" as="sourcePoint" />
            <mxPoint x="690" y="-1020" as="targetPoint" />
          </mxGeometry>
        </mxCell>
        <mxCell id="g3Qe9eYbxrYbmOavFG9u-17" value="" style="endArrow=classic;startArrow=classic;html=1;rounded=0;fontFamily=Georgia;fontSize=30;entryX=0.5;entryY=1;entryDx=0;entryDy=0;" edge="1" parent="1" target="g3Qe9eYbxrYbmOavFG9u-6">
          <mxGeometry width="50" height="50" relative="1" as="geometry">
            <mxPoint x="140" y="-860" as="sourcePoint" />
            <mxPoint x="141" y="-900" as="targetPoint" />
          </mxGeometry>
        </mxCell>
        <mxCell id="g3Qe9eYbxrYbmOavFG9u-43" value="LAN" style="edgeLabel;html=1;align=center;verticalAlign=middle;resizable=0;points=[];fontSize=13;fontFamily=Georgia;" vertex="1" connectable="0" parent="g3Qe9eYbxrYbmOavFG9u-17">
          <mxGeometry x="0.1607" y="-2" relative="1" as="geometry">
            <mxPoint as="offset" />
          </mxGeometry>
        </mxCell>
        <mxCell id="g3Qe9eYbxrYbmOavFG9u-18" value="" style="endArrow=classic;startArrow=classic;html=1;rounded=0;fontFamily=Georgia;fontSize=30;" edge="1" parent="1">
          <mxGeometry width="50" height="50" relative="1" as="geometry">
            <mxPoint x="100" y="-790" as="sourcePoint" />
            <mxPoint x="100" y="-830" as="targetPoint" />
          </mxGeometry>
        </mxCell>
        <mxCell id="g3Qe9eYbxrYbmOavFG9u-39" value="LAN" style="edgeLabel;html=1;align=center;verticalAlign=middle;resizable=0;points=[];fontSize=13;fontFamily=Georgia;" vertex="1" connectable="0" parent="g3Qe9eYbxrYbmOavFG9u-18">
          <mxGeometry x="-0.1" relative="1" as="geometry">
            <mxPoint as="offset" />
          </mxGeometry>
        </mxCell>
        <mxCell id="g3Qe9eYbxrYbmOavFG9u-19" value="&lt;span style=&quot;font-size: 13px&quot;&gt;映像音声切替用PC&lt;/span&gt;" style="rounded=0;whiteSpace=wrap;html=1;fontFamily=Georgia;fontSize=30;" vertex="1" parent="1">
          <mxGeometry x="10" y="-790" width="110" height="40" as="geometry" />
        </mxCell>
        <mxCell id="g3Qe9eYbxrYbmOavFG9u-20" value="" style="endArrow=classic;startArrow=classic;html=1;rounded=0;fontFamily=Georgia;fontSize=13;exitX=0.273;exitY=1;exitDx=0;exitDy=0;exitPerimeter=0;" edge="1" parent="1" source="g3Qe9eYbxrYbmOavFG9u-19" target="g3Qe9eYbxrYbmOavFG9u-21">
          <mxGeometry width="50" height="50" relative="1" as="geometry">
            <mxPoint x="40" y="-740" as="sourcePoint" />
            <mxPoint x="520" y="-760" as="targetPoint" />
          </mxGeometry>
        </mxCell>
        <mxCell id="g3Qe9eYbxrYbmOavFG9u-42" value="USB" style="edgeLabel;html=1;align=center;verticalAlign=middle;resizable=0;points=[];fontSize=13;fontFamily=Georgia;" vertex="1" connectable="0" parent="g3Qe9eYbxrYbmOavFG9u-20">
          <mxGeometry x="-0.12" y="2" relative="1" as="geometry">
            <mxPoint as="offset" />
          </mxGeometry>
        </mxCell>
        <mxCell id="g3Qe9eYbxrYbmOavFG9u-21" value="カメラ&lt;br&gt;１~２" style="whiteSpace=wrap;html=1;aspect=fixed;fontFamily=Georgia;fontSize=13;" vertex="1" parent="1">
          <mxGeometry x="10" y="-700" width="60" height="60" as="geometry" />
        </mxCell>
        <mxCell id="g3Qe9eYbxrYbmOavFG9u-22" value="AP" style="whiteSpace=wrap;html=1;aspect=fixed;fontFamily=Georgia;fontSize=13;" vertex="1" parent="1">
          <mxGeometry x="130" y="-720" width="50" height="50" as="geometry" />
        </mxCell>
        <mxCell id="g3Qe9eYbxrYbmOavFG9u-23" value="会館&lt;br&gt;映像&lt;br&gt;音声" style="whiteSpace=wrap;html=1;aspect=fixed;fontFamily=Georgia;fontSize=13;" vertex="1" parent="1">
          <mxGeometry x="15" y="-990" width="50" height="50" as="geometry" />
        </mxCell>
        <mxCell id="g3Qe9eYbxrYbmOavFG9u-24" value="" style="endArrow=classic;startArrow=classic;html=1;rounded=0;fontFamily=Georgia;fontSize=13;entryX=0.5;entryY=1;entryDx=0;entryDy=0;" edge="1" parent="1" target="g3Qe9eYbxrYbmOavFG9u-23">
          <mxGeometry width="50" height="50" relative="1" as="geometry">
            <mxPoint x="40" y="-880" as="sourcePoint" />
            <mxPoint x="80" y="-850" as="targetPoint" />
          </mxGeometry>
        </mxCell>
        <mxCell id="g3Qe9eYbxrYbmOavFG9u-25" value="" style="endArrow=classic;startArrow=classic;html=1;rounded=0;fontFamily=Georgia;fontSize=13;exitX=0.5;exitY=0;exitDx=0;exitDy=0;" edge="1" parent="1" source="g3Qe9eYbxrYbmOavFG9u-22">
          <mxGeometry width="50" height="50" relative="1" as="geometry">
            <mxPoint x="160" y="-720" as="sourcePoint" />
            <mxPoint x="155" y="-830" as="targetPoint" />
          </mxGeometry>
        </mxCell>
        <mxCell id="g3Qe9eYbxrYbmOavFG9u-38" value="LAN" style="edgeLabel;html=1;align=center;verticalAlign=middle;resizable=0;points=[];fontSize=13;fontFamily=Georgia;" vertex="1" connectable="0" parent="g3Qe9eYbxrYbmOavFG9u-25">
          <mxGeometry x="0.4182" y="1" relative="1" as="geometry">
            <mxPoint as="offset" />
          </mxGeometry>
        </mxCell>
        <mxCell id="g3Qe9eYbxrYbmOavFG9u-27" value="iPad1" style="whiteSpace=wrap;html=1;aspect=fixed;fontFamily=Georgia;fontSize=13;" vertex="1" parent="1">
          <mxGeometry x="110" y="-640" width="44" height="44" as="geometry" />
        </mxCell>
        <mxCell id="g3Qe9eYbxrYbmOavFG9u-28" value="iPad2" style="whiteSpace=wrap;html=1;aspect=fixed;fontFamily=Georgia;fontSize=13;" vertex="1" parent="1">
          <mxGeometry x="157" y="-640" width="44" height="44" as="geometry" />
        </mxCell>
        <mxCell id="g3Qe9eYbxrYbmOavFG9u-29" value="" style="endArrow=classic;startArrow=classic;html=1;rounded=0;fontFamily=Georgia;fontSize=13;entryX=0.25;entryY=1;entryDx=0;entryDy=0;" edge="1" parent="1" target="g3Qe9eYbxrYbmOavFG9u-22">
          <mxGeometry width="50" height="50" relative="1" as="geometry">
            <mxPoint x="130" y="-640" as="sourcePoint" />
            <mxPoint x="180" y="-690" as="targetPoint" />
          </mxGeometry>
        </mxCell>
        <mxCell id="g3Qe9eYbxrYbmOavFG9u-30" value="" style="endArrow=classic;startArrow=classic;html=1;rounded=0;fontFamily=Georgia;fontSize=13;entryX=0.75;entryY=1;entryDx=0;entryDy=0;exitX=0.5;exitY=0;exitDx=0;exitDy=0;" edge="1" parent="1" source="g3Qe9eYbxrYbmOavFG9u-28" target="g3Qe9eYbxrYbmOavFG9u-22">
          <mxGeometry width="50" height="50" relative="1" as="geometry">
            <mxPoint x="140" y="-630" as="sourcePoint" />
            <mxPoint x="152.5" y="-660" as="targetPoint" />
          </mxGeometry>
        </mxCell>
        <mxCell id="g3Qe9eYbxrYbmOavFG9u-31" value="Zoom&lt;br&gt;専用機" style="whiteSpace=wrap;html=1;aspect=fixed;fontFamily=Georgia;fontSize=13;" vertex="1" parent="1">
          <mxGeometry x="374" y="-830" width="80" height="80" as="geometry" />
        </mxCell>
        <mxCell id="g3Qe9eYbxrYbmOavFG9u-33" value="Audio&lt;br&gt;Interface" style="whiteSpace=wrap;html=1;aspect=fixed;fontFamily=Georgia;fontSize=13;" vertex="1" parent="1">
          <mxGeometry x="10" y="-880" width="60" height="60" as="geometry" />
        </mxCell>
        <mxCell id="g3Qe9eYbxrYbmOavFG9u-34" value="" style="endArrow=classic;startArrow=classic;html=1;rounded=0;fontFamily=Georgia;fontSize=13;entryX=0.5;entryY=1;entryDx=0;entryDy=0;" edge="1" parent="1" target="g3Qe9eYbxrYbmOavFG9u-33">
          <mxGeometry width="50" height="50" relative="1" as="geometry">
            <mxPoint x="40" y="-790" as="sourcePoint" />
            <mxPoint x="90" y="-840" as="targetPoint" />
          </mxGeometry>
        </mxCell>
        <mxCell id="g3Qe9eYbxrYbmOavFG9u-41" value="USB" style="edgeLabel;html=1;align=center;verticalAlign=middle;resizable=0;points=[];fontSize=13;fontFamily=Georgia;" vertex="1" connectable="0" parent="g3Qe9eYbxrYbmOavFG9u-34">
          <mxGeometry x="-0.2667" y="-1" relative="1" as="geometry">
            <mxPoint as="offset" />
          </mxGeometry>
        </mxCell>
        <mxCell id="g3Qe9eYbxrYbmOavFG9u-35" value="" style="endArrow=classic;startArrow=classic;html=1;rounded=0;fontFamily=Georgia;fontSize=13;entryX=0.5;entryY=1;entryDx=0;entryDy=0;exitX=0.5;exitY=0;exitDx=0;exitDy=0;" edge="1" parent="1" source="g3Qe9eYbxrYbmOavFG9u-31">
          <mxGeometry width="50" height="50" relative="1" as="geometry">
            <mxPoint x="414" y="-840" as="sourcePoint" />
            <mxPoint x="414" y="-920" as="targetPoint" />
          </mxGeometry>
        </mxCell>
        <mxCell id="g3Qe9eYbxrYbmOavFG9u-45" value="LAN" style="edgeLabel;html=1;align=center;verticalAlign=middle;resizable=0;points=[];fontSize=13;fontFamily=Georgia;" vertex="1" connectable="0" parent="g3Qe9eYbxrYbmOavFG9u-35">
          <mxGeometry x="-0.25" y="1" relative="1" as="geometry">
            <mxPoint x="1" y="-6" as="offset" />
          </mxGeometry>
        </mxCell>
        <mxCell id="g3Qe9eYbxrYbmOavFG9u-36" value="" style="endArrow=classic;startArrow=classic;html=1;rounded=0;fontFamily=Georgia;fontSize=13;exitX=1;exitY=0.75;exitDx=0;exitDy=0;" edge="1" parent="1" source="g3Qe9eYbxrYbmOavFG9u-19">
          <mxGeometry width="50" height="50" relative="1" as="geometry">
            <mxPoint x="130" y="-765" as="sourcePoint" />
            <mxPoint x="370" y="-760" as="targetPoint" />
          </mxGeometry>
        </mxCell>
        <mxCell id="g3Qe9eYbxrYbmOavFG9u-37" value="音声&amp;amp;映像入出力(USB&amp;amp;AudioCable)" style="edgeLabel;html=1;align=center;verticalAlign=middle;resizable=0;points=[];fontSize=13;fontFamily=Georgia;" vertex="1" connectable="0" parent="g3Qe9eYbxrYbmOavFG9u-36">
          <mxGeometry x="-0.152" y="3" relative="1" as="geometry">
            <mxPoint x="13" y="3" as="offset" />
          </mxGeometry>
        </mxCell>
        <mxCell id="g3Qe9eYbxrYbmOavFG9u-46" value="配信用PC" style="whiteSpace=wrap;html=1;aspect=fixed;fontFamily=Georgia;fontSize=13;" vertex="1" parent="1">
          <mxGeometry x="620" y="-830" width="70" height="70" as="geometry" />
        </mxCell>
        <mxCell id="g3Qe9eYbxrYbmOavFG9u-47" value="担当生徒用&lt;br&gt;回線" style="whiteSpace=wrap;html=1;aspect=fixed;fontFamily=Georgia;fontSize=13;" vertex="1" parent="1">
          <mxGeometry x="700" y="-830" width="70" height="70" as="geometry" />
        </mxCell>
        <mxCell id="g3Qe9eYbxrYbmOavFG9u-48" value="" style="endArrow=classic;startArrow=classic;html=1;rounded=0;fontFamily=Georgia;fontSize=13;entryX=0.317;entryY=1;entryDx=0;entryDy=0;entryPerimeter=0;" edge="1" parent="1" target="g3Qe9eYbxrYbmOavFG9u-7">
          <mxGeometry width="50" height="50" relative="1" as="geometry">
            <mxPoint x="660" y="-830" as="sourcePoint" />
            <mxPoint x="680" y="-900" as="targetPoint" />
          </mxGeometry>
        </mxCell>
        <mxCell id="g3Qe9eYbxrYbmOavFG9u-50" value="" style="endArrow=classic;startArrow=classic;html=1;rounded=0;fontFamily=Georgia;fontSize=13;entryX=0.667;entryY=1;entryDx=0;entryDy=0;entryPerimeter=0;exitX=0.5;exitY=0;exitDx=0;exitDy=0;" edge="1" parent="1" source="g3Qe9eYbxrYbmOavFG9u-47" target="g3Qe9eYbxrYbmOavFG9u-7">
          <mxGeometry width="50" height="50" relative="1" as="geometry">
            <mxPoint x="733.04" y="-830" as="sourcePoint" />
            <mxPoint x="760" y="-910" as="targetPoint" />
          </mxGeometry>
        </mxCell>
        <mxCell id="g3Qe9eYbxrYbmOavFG9u-51" value="Cloud&lt;br&gt;Streaming&lt;br&gt;Server" style="ellipse;whiteSpace=wrap;html=1;fontFamily=Georgia;fontSize=13;" vertex="1" parent="1">
          <mxGeometry x="675" y="-1130" width="120" height="80" as="geometry" />
        </mxCell>
        <mxCell id="g3Qe9eYbxrYbmOavFG9u-52" value="" style="endArrow=classic;startArrow=classic;html=1;rounded=0;fontFamily=Georgia;fontSize=13;entryX=0.017;entryY=0.625;entryDx=0;entryDy=0;entryPerimeter=0;" edge="1" parent="1" target="g3Qe9eYbxrYbmOavFG9u-51">
          <mxGeometry width="50" height="50" relative="1" as="geometry">
            <mxPoint x="590" y="-1080" as="sourcePoint" />
            <mxPoint x="640" y="-1130" as="targetPoint" />
          </mxGeometry>
        </mxCell>
        <mxCell id="g3Qe9eYbxrYbmOavFG9u-60" value="" style="endArrow=classic;html=1;rounded=0;fontFamily=Georgia;fontSize=13;entryX=0.25;entryY=1;entryDx=0;entryDy=0;" edge="1" parent="1" target="g3Qe9eYbxrYbmOavFG9u-46">
          <mxGeometry width="50" height="50" relative="1" as="geometry">
            <mxPoint x="640" y="-570" as="sourcePoint" />
            <mxPoint x="690" y="-620" as="targetPoint" />
          </mxGeometry>
        </mxCell>
        <mxCell id="g3Qe9eYbxrYbmOavFG9u-61" value="" style="endArrow=classic;html=1;rounded=0;fontFamily=Georgia;fontSize=13;entryX=0.655;entryY=1.1;entryDx=0;entryDy=0;entryPerimeter=0;" edge="1" parent="1" target="g3Qe9eYbxrYbmOavFG9u-19">
          <mxGeometry width="50" height="50" relative="1" as="geometry">
            <mxPoint x="82" y="-570" as="sourcePoint" />
            <mxPoint x="130.5" y="-570" as="targetPoint" />
          </mxGeometry>
        </mxCell>
        <mxCell id="g3Qe9eYbxrYbmOavFG9u-62" value="" style="endArrow=none;html=1;rounded=0;fontFamily=Georgia;fontSize=13;" edge="1" parent="1">
          <mxGeometry width="50" height="50" relative="1" as="geometry">
            <mxPoint x="80" y="-570" as="sourcePoint" />
            <mxPoint x="640" y="-570" as="targetPoint" />
          </mxGeometry>
        </mxCell>
        <mxCell id="g3Qe9eYbxrYbmOavFG9u-66" value="HDMI&lt;br&gt;" style="edgeLabel;html=1;align=center;verticalAlign=middle;resizable=0;points=[];fontSize=13;fontFamily=Georgia;" vertex="1" connectable="0" parent="g3Qe9eYbxrYbmOavFG9u-62">
          <mxGeometry x="-0.0179" relative="1" as="geometry">
            <mxPoint as="offset" />
          </mxGeometry>
        </mxCell>
      </root>
    </mxGraphModel>
  </diagram>
</mxfile>
